<svg width="375" height="340" viewBox="0 0 375 340" fill="none" xmlns="http://www.w3.org/2000/svg">
<rect width="375" height="340" fill="white"/>
<path d="M256.591 148.305C197.82 148.199 139.024 148.092 80.2536 147.986C89.885 133.691 104.107 122.564 120.265 116.654C116.099 161.535 110.395 206.283 103.204 250.791C120.424 201.305 137.724 151.712 160.462 104.516C166.697 134.596 168.104 165.688 164.601 196.194C175.214 170.799 185.828 145.377 196.414 119.982C195.512 143.993 193.628 167.95 190.789 191.801C212.175 173.381 233.587 154.987 254.972 136.566C217.773 169.84 179.433 203.86 132.762 221.402C129.79 222.521 126.58 223.585 123.529 222.707C114.958 220.258 116.948 207.134 122.441 200.08C136.238 182.352 159.083 174.073 181.317 171.012C203.525 167.924 226.184 169.148 248.392 166.007C255.556 150.621 256.14 132.253 249.984 116.441C239.848 132.067 233.587 150.195 231.915 168.749C242.74 138.083 254.999 107.923 268.61 78.4019C282.54 136.805 286.732 197.525 281.001 257.312C257.944 207.401 266.859 144.312 302.837 102.812C290.022 117.639 279.86 134.782 272.961 153.176C281.638 155.306 290.951 154.747 299.308 151.553C279.064 171.597 258.819 191.615 238.575 211.66C223.716 226.38 208.593 241.287 190.285 251.376C134.195 282.361 64.8115 261.518 1.1062 267.827" stroke="#D60539" stroke-width="9" stroke-miterlimit="10"/>
<path d="M270.759 13.7694C218.012 11.5334 161.736 10.1492 116.604 37.6472C94.2364 51.2765 76.141 71.3477 62.8746 93.9744C35.307 140.958 29.3637 203.035 57.6211 249.593C78.4759 283.959 114.773 306.133 152.131 320.827C177.204 330.703 204.215 337.863 230.96 334.483C292.781 326.63 334.066 266.017 354.47 206.975C366.728 171.464 374.582 133.318 367.922 96.3435C361.289 59.3688 337.914 23.8316 302.837 10.6549C262.614 -4.4384 218.118 11.9061 178.319 28.1174" stroke="#D60539" stroke-width="9" stroke-miterlimit="10"/>
</svg>
