<svg width="83" height="260" viewBox="0 0 83 260" fill="none" xmlns="http://www.w3.org/2000/svg">
<path d="M82.064 12.944V58.256C82.064 59.152 82.032 60.08 81.968 61.04C81.968 62 81.904 62.928 81.776 63.824C81.648 64.912 81.328 65.872 80.816 66.704C80.752 66.768 80.656 66.96 80.528 67.28C80.4 67.536 80.304 67.664 80.24 67.664C80.24 67.664 80.176 67.6 80.048 67.472C79.92 67.344 79.728 67.216 79.472 67.088C79.28 66.896 79.152 66.736 79.088 66.608C79.024 66.48 78.992 66.32 78.992 66.128C78.992 65.872 78.992 65.68 78.992 65.552C78.928 65.104 78.896 64.688 78.896 64.304C78.896 63.92 78.896 63.504 78.896 63.056V22.832C78.896 21.36 78.896 19.6 78.896 17.552C78.96 15.504 78.928 13.776 78.8 12.368C78.8 11.856 78.768 11.344 78.704 10.832C78.64 10.256 78.48 9.744 78.224 9.296C78.16 9.168 78.032 9.008 77.84 8.816C77.648 8.624 77.488 8.464 77.36 8.336C77.232 8.016 77.072 7.824 76.88 7.75999C76.752 7.632 76.56 7.536 76.304 7.472C76.048 7.408 75.856 7.344 75.728 7.27999C74.768 6.96 73.744 6.8 72.656 6.8C71.632 6.8 70.608 6.8 69.584 6.8H63.92C63.408 6.86399 62.832 6.928 62.192 6.992C61.616 6.992 61.072 7.056 60.56 7.184C59.344 7.568 58.32 8.24 57.488 9.2C56.72 10.16 55.984 11.184 55.28 12.272L50.384 20.336C49.872 21.168 49.36 22.032 48.848 22.928C48.336 23.76 47.824 24.624 47.312 25.52C47.056 25.968 46.768 26.448 46.448 26.96C46.128 27.408 45.808 27.856 45.488 28.304L44.624 29.36C44.56 29.424 44.496 29.488 44.432 29.552C44.432 29.616 44.4 29.68 44.336 29.744C44.208 29.808 43.984 29.84 43.664 29.84C43.408 29.84 43.184 29.84 42.992 29.84L42.224 29.936C42.16 29.872 42.064 29.776 41.936 29.648C41.872 29.52 41.808 29.424 41.744 29.36C41.488 29.04 41.232 28.752 40.976 28.496C40.72 28.24 40.464 27.952 40.208 27.632C39.504 26.544 38.832 25.424 38.192 24.272C37.552 23.12 36.88 22 36.176 20.912C35.344 19.568 34.512 18.224 33.68 16.88C32.848 15.472 32.016 14.096 31.184 12.752C30.544 11.728 29.84 10.736 29.072 9.776C28.368 8.752 27.472 8.016 26.384 7.568C25.872 7.312 25.296 7.152 24.656 7.088C24.08 7.024 23.536 6.96 23.024 6.89599C22 6.768 21.008 6.736 20.048 6.8C19.088 6.8 18.096 6.8 17.072 6.8C16.112 6.8 15.12 6.8 14.096 6.8C13.136 6.736 12.176 6.832 11.216 7.088L10.064 7.376C9.808 7.504 9.488 7.696 9.104 7.952C8.72 8.208 8.464 8.464 8.336 8.72L8.048 9.392C7.664 10.224 7.44 11.024 7.376 11.792C7.184 13.2 7.12 14.896 7.184 16.88C7.248 18.864 7.28 20.592 7.28 22.064V67.088C7.344 67.728 7.408 68.368 7.472 69.008C7.536 69.648 7.696 70.288 7.952 70.928C8.08 71.44 8.208 71.792 8.336 71.984C8.4 72.176 8.592 72.336 8.912 72.464C9.04 72.592 9.168 72.752 9.296 72.944C9.488 73.072 9.68 73.2 9.872 73.328C10.064 73.392 10.288 73.456 10.544 73.52C10.864 73.584 11.152 73.648 11.408 73.712C11.984 73.84 12.56 73.936 13.136 74C13.776 74 14.384 74 14.96 74H20.816C21.2 74 21.584 74 21.968 74C22.352 74 22.736 74.032 23.12 74.096C23.248 74.16 23.408 74.192 23.6 74.192C23.856 74.192 24.016 74.224 24.08 74.288C24.4 74.416 24.592 74.576 24.656 74.768C24.784 74.832 24.944 74.928 25.136 75.056C25.328 75.184 25.456 75.312 25.52 75.44C25.52 75.504 25.424 75.632 25.232 75.824C25.104 76.08 25.008 76.272 24.944 76.4L24.656 77.168C24.592 77.232 24.432 77.296 24.176 77.36C23.984 77.424 23.824 77.52 23.696 77.648C22.544 78.16 21.392 78.416 20.24 78.416C18.832 78.48 17.104 78.512 15.056 78.512C13.008 78.512 11.248 78.48 9.776 78.416C8.56 78.352 7.344 78.16 6.128 77.84C4.976 77.52 3.952 76.88 3.056 75.92C2.416 75.216 1.936 74.448 1.616 73.616C1.296 72.72 1.04 71.856 0.848 71.024C0.592 70.064 0.432 68.88 0.368 67.472C0.24 66 0.176 64.56 0.176 63.152C0.176 61.68 0.176 60.464 0.176 59.504V14.672C0.176 13.712 0.208 12.72 0.272 11.696C0.272 10.608 0.432 9.648 0.752 8.816C1.392 7.408 2.32 6.384 3.536 5.744C4.112 5.424 4.72 5.2 5.36 5.07199C6.064 4.944 6.736 4.752 7.376 4.496C8.656 3.92 9.84 3.184 10.928 2.288C12.08 1.392 13.36 0.815996 14.768 0.559996C15.664 0.367998 16.592 0.271999 17.552 0.271999C18.512 0.271999 19.44 0.271999 20.336 0.271999C21.744 0.271999 23.216 0.271999 24.752 0.271999C26.288 0.271999 27.696 0.527998 28.976 1.04C30.192 1.488 31.312 2.288 32.336 3.44C32.848 4.016 33.328 4.656 33.776 5.36C34.224 6 34.672 6.672 35.12 7.376L38.768 13.424C39.024 13.808 39.312 14.256 39.632 14.768C39.952 15.216 40.304 15.6 40.688 15.92C40.816 15.984 40.976 16.048 41.168 16.112C41.36 16.176 41.52 16.272 41.648 16.4L42.416 16.784C42.544 16.784 42.672 16.752 42.8 16.688C42.992 16.624 43.12 16.56 43.184 16.496C43.376 16.432 43.568 16.368 43.76 16.304C44.016 16.24 44.208 16.176 44.336 16.112C44.528 15.984 44.72 15.792 44.912 15.536C45.168 15.216 45.36 14.96 45.488 14.768C45.744 14.512 45.968 14.224 46.16 13.904C46.352 13.584 46.544 13.296 46.736 13.04C47.312 12.08 47.888 11.12 48.464 10.16C49.104 9.136 49.84 8.24 50.672 7.472C51.76 6.512 52.944 5.904 54.224 5.648C55.568 5.328 56.848 4.88 58.064 4.304C59.024 3.792 59.888 3.216 60.656 2.576C61.488 1.872 62.384 1.35999 63.344 1.04C64.752 0.463995 66.288 0.207996 67.952 0.271999C69.616 0.271999 71.152 0.271999 72.56 0.271999C73.52 0.271999 74.512 0.303999 75.536 0.367998C76.56 0.367998 77.52 0.527998 78.416 0.847998C78.608 0.911997 78.8 0.975996 78.992 1.04C79.248 1.04 79.472 1.104 79.664 1.232L80.336 1.99999C80.656 2.192 80.912 2.448 81.104 2.768C81.424 3.216 81.616 3.76 81.68 4.4C81.808 4.976 81.904 5.52 81.968 6.032C82.096 7.12 82.128 8.24 82.064 9.392C82.064 10.48 82.064 11.664 82.064 12.944ZM40.688 62.192C39.856 62.256 39.024 62.32 38.192 62.384C37.424 62.384 36.656 62.512 35.888 62.768C35.76 62.832 35.6 62.896 35.408 62.96C35.216 62.96 35.056 63.024 34.928 63.152C34.672 63.28 34.384 63.504 34.064 63.824C33.808 64.08 33.584 64.304 33.392 64.496C33.072 64.944 32.784 65.392 32.528 65.84C32.336 66.288 32.08 66.736 31.76 67.184C31.696 67.248 31.6 67.408 31.472 67.664C31.408 67.856 31.312 67.984 31.184 68.048C31.12 68.112 30.928 68.144 30.608 68.144C30.288 68.08 30.128 68.016 30.128 67.952C30.064 67.888 30.032 67.76 30.032 67.568C30.032 67.312 30.032 67.152 30.032 67.088C29.968 66.576 29.904 66.096 29.84 65.648C29.84 65.136 29.84 64.656 29.84 64.208V53.456C29.84 52.944 29.84 52.432 29.84 51.92C29.84 51.344 29.904 50.8 30.032 50.288C30.096 50.16 30.128 49.968 30.128 49.712C30.192 49.456 30.256 49.296 30.32 49.232C30.448 49.168 30.544 49.168 30.608 49.232C30.736 49.232 30.832 49.232 30.896 49.232C31.024 49.232 31.216 49.232 31.472 49.232C31.728 49.168 31.92 49.168 32.048 49.232C32.176 49.296 32.304 49.456 32.432 49.712C32.624 49.904 32.752 50.064 32.816 50.192C33.584 51.152 34.288 52.176 34.928 53.264C35.568 54.352 36.336 55.28 37.232 56.048C38 56.624 38.832 57.04 39.728 57.296C40.624 57.488 41.488 57.648 42.32 57.776C42.704 57.776 43.056 57.808 43.376 57.872C43.76 57.872 44.144 57.904 44.528 57.968C44.656 58.032 44.816 58.064 45.008 58.064C45.2 58.064 45.328 58.096 45.392 58.16C45.456 58.224 45.488 58.384 45.488 58.64C45.488 58.896 45.52 59.088 45.584 59.216C45.584 59.28 45.616 59.408 45.68 59.6C45.744 59.728 45.744 59.856 45.68 59.984C45.68 60.048 45.584 60.144 45.392 60.272C45.2 60.4 45.04 60.528 44.912 60.656C44.336 61.104 43.696 61.456 42.992 61.712C42.352 61.904 41.584 62.064 40.688 62.192ZM70.64 78.32C69.424 78.384 68.208 78.416 66.992 78.416C65.84 78.48 64.656 78.512 63.44 78.512C62.48 78.512 61.52 78.48 60.56 78.416C59.664 78.416 58.736 78.384 57.776 78.32C56.56 78.192 55.376 77.904 54.224 77.456C53.072 77.008 52.144 76.272 51.44 75.248C50.992 74.48 50.608 73.648 50.288 72.752C50.032 71.792 49.84 70.896 49.712 70.064C49.52 69.04 49.392 68.016 49.328 66.992C49.264 65.904 49.232 64.848 49.232 63.824C49.232 62.352 49.296 60.944 49.424 59.6C49.552 58.256 49.84 56.88 50.288 55.472C50.608 54.704 50.992 53.904 51.44 53.072C51.888 52.176 52.4 51.44 52.976 50.864C53.104 50.736 53.232 50.608 53.36 50.48C53.552 50.352 53.68 50.256 53.744 50.192C53.872 50.128 53.936 50.064 53.936 50C54 49.936 54.064 49.872 54.128 49.808C54.256 49.808 54.384 49.84 54.512 49.904C54.704 49.968 54.832 50.032 54.896 50.096C55.024 50.096 55.184 50.128 55.376 50.192C55.632 50.192 55.792 50.256 55.856 50.384C55.984 50.448 56.048 50.608 56.048 50.864C56.048 51.056 56.08 51.216 56.144 51.344C56.272 51.856 56.336 52.368 56.336 52.88C56.336 53.392 56.336 53.904 56.336 54.416V65.168C56.336 66 56.336 66.8 56.336 67.568C56.4 68.336 56.528 69.072 56.72 69.776C56.784 69.968 56.816 70.16 56.816 70.352C56.88 70.544 56.944 70.704 57.008 70.832C57.648 72.176 58.672 73.104 60.08 73.616C60.336 73.68 60.592 73.744 60.848 73.808C61.104 73.808 61.36 73.808 61.616 73.808C62.512 73.936 63.408 74 64.304 74C65.2 74 66.096 74 66.992 74H69.968C70.48 74 70.992 74 71.504 74C72.08 74 72.624 74.064 73.136 74.192C73.264 74.256 73.456 74.288 73.712 74.288C73.968 74.288 74.128 74.352 74.192 74.48C74.32 74.544 74.384 74.64 74.384 74.768C74.448 74.96 74.48 75.088 74.48 75.152C74.544 75.216 74.608 75.344 74.672 75.536C74.8 75.792 74.864 75.984 74.864 76.112C74.736 76.368 74.48 76.592 74.096 76.784C73.904 77.104 73.648 77.36 73.328 77.552C73.072 77.744 72.688 77.904 72.176 78.032C71.664 78.16 71.152 78.256 70.64 78.32ZM76.976 144.36C76.784 145.768 76.464 147.432 76.016 149.352C75.568 151.208 74.928 152.872 74.096 154.344C73.712 154.984 73.296 155.656 72.848 156.36C72.4 157.064 71.92 157.704 71.408 158.28C70.768 158.984 70.096 159.688 69.392 160.392C68.688 161.032 67.92 161.64 67.088 162.216C66.512 162.792 65.488 163.368 64.016 163.944C62.544 164.52 60.848 165.064 58.928 165.576C57.072 166.088 55.184 166.536 53.264 166.92C51.408 167.304 49.744 167.592 48.272 167.784C46.8 168.04 45.776 168.168 45.2 168.168C43.792 168.168 42.064 168.072 40.016 167.88C37.968 167.752 36.208 167.496 34.736 167.112C34.288 166.984 33.84 166.856 33.392 166.728C33.008 166.664 32.592 166.568 32.144 166.44C32.08 166.376 31.952 166.312 31.76 166.248C31.632 166.248 31.504 166.216 31.376 166.152L31.28 165.48C31.408 165.416 31.6 165.416 31.856 165.48C32.112 165.544 32.272 165.576 32.336 165.576C32.784 165.64 33.232 165.672 33.68 165.672C34.128 165.736 34.576 165.768 35.024 165.768C36.24 165.832 37.456 165.864 38.672 165.864C39.888 165.864 41.104 165.8 42.32 165.672C43.024 165.48 44.336 165.064 46.256 164.424C48.24 163.72 50.384 162.92 52.688 162.024C55.056 161.064 57.2 160.104 59.12 159.144C61.104 158.184 62.448 157.352 63.152 156.648C64.112 155.688 65.008 154.312 65.84 152.52C66.672 150.728 67.376 148.936 67.952 147.144C68.592 145.352 69.04 143.976 69.296 143.016C69.552 141.544 69.68 139.816 69.68 137.832C69.744 135.784 69.776 134.056 69.776 132.648C69.776 131.688 69.776 130.408 69.776 128.808C69.776 127.144 69.744 125.512 69.68 123.912C69.616 122.248 69.488 120.936 69.296 119.976C69.104 119.272 68.72 118.248 68.144 116.904C67.568 115.496 66.896 114.024 66.128 112.488C65.424 110.888 64.656 109.416 63.824 108.072C62.992 106.664 62.224 105.608 61.52 104.904C60.816 104.2 59.472 103.432 57.488 102.6C55.504 101.704 53.328 100.872 50.96 100.104C48.656 99.272 46.512 98.6 44.528 98.088C42.544 97.512 41.2 97.16 40.496 97.032C39.792 96.968 38.704 96.968 37.232 97.032C35.76 97.032 34.192 97.096 32.528 97.224C30.864 97.352 29.296 97.544 27.824 97.8C26.352 98.056 25.264 98.376 24.56 98.76C23.152 99.4 21.36 100.232 19.184 101.256C17.072 102.216 15.28 103.4 13.808 104.808C12.784 105.64 11.824 106.664 10.928 107.88L9.872 109.032C9.68 109.224 9.584 109.32 9.584 109.32C9.52 109.32 9.52 109.224 9.584 109.032C9.712 108.776 9.808 108.648 9.872 108.648C10 108.2 10.16 107.784 10.352 107.4C10.544 107.016 10.768 106.6 11.024 106.152C11.984 104.68 13.168 103.304 14.576 102.024C15.984 100.68 17.392 99.496 18.8 98.472C19.888 97.704 21.04 97.064 22.256 96.552C23.472 95.976 24.688 95.464 25.904 95.016C26.48 94.44 27.696 93.96 29.552 93.576C31.472 93.128 33.68 92.808 36.176 92.616C38.736 92.36 41.264 92.232 43.76 92.232C46.32 92.168 48.528 92.264 50.384 92.52C52.304 92.712 53.552 93.064 54.128 93.576C55.472 93.96 56.784 94.44 58.064 95.016C59.344 95.528 60.592 96.136 61.808 96.84C63.28 97.864 64.88 99.144 66.608 100.68C68.336 102.216 69.808 103.72 71.024 105.192C72.112 106.6 72.976 108.328 73.616 110.376C74.32 112.424 74.928 114.184 75.44 115.656C75.76 116.936 76.08 118.248 76.4 119.592C76.72 120.936 76.944 122.248 77.072 123.528C77.264 124.936 77.36 126.568 77.36 128.424C77.424 130.28 77.456 131.944 77.456 133.416C77.456 134.824 77.424 136.616 77.36 138.792C77.296 140.904 77.168 142.76 76.976 144.36ZM40.208 120.072C39.952 120.648 39.664 121.256 39.344 121.896C39.088 122.472 38.896 123.08 38.768 123.72C38.32 125.128 38.064 126.6 38 128.136C38 129.672 38 131.176 38 132.648C38 133.544 37.968 134.504 37.904 135.528C37.904 136.488 38.032 137.416 38.288 138.312C38.416 138.568 38.544 138.888 38.672 139.272C38.8 139.656 38.928 139.976 39.056 140.232C39.312 140.552 39.6 140.84 39.92 141.096C40.24 141.352 40.528 141.64 40.784 141.96C40.912 142.152 41.104 142.376 41.36 142.632C41.68 142.888 41.872 143.112 41.936 143.304C41.936 143.432 41.904 143.624 41.84 143.88C41.776 144.072 41.712 144.232 41.648 144.36C41.648 144.424 41.648 144.552 41.648 144.744C41.648 144.872 41.584 145 41.456 145.128C41.392 145.256 41.264 145.384 41.072 145.512C40.88 145.576 40.72 145.672 40.592 145.8C39.952 146.248 39.184 146.536 38.288 146.664C37.392 146.792 36.528 146.728 35.696 146.472C34.416 146.088 33.392 145.352 32.624 144.264C31.856 143.176 31.312 142.024 30.992 140.808C30.736 139.784 30.576 138.728 30.512 137.64C30.512 136.488 30.48 135.368 30.416 134.28C30.416 132.808 30.416 131.176 30.416 129.384C30.416 127.528 30.48 125.896 30.608 124.488C30.736 123.4 30.928 122.28 31.184 121.128C31.504 119.912 32.08 118.888 32.912 118.056C34.064 116.776 35.632 116.136 37.616 116.136C37.744 116.136 37.904 116.136 38.096 116.136C38.352 116.136 38.544 116.168 38.672 116.232C38.864 116.296 39.056 116.424 39.248 116.616C39.504 116.744 39.728 116.872 39.92 117C40.176 117.128 40.336 117.224 40.4 117.288C40.464 117.352 40.496 117.48 40.496 117.672C40.496 117.8 40.496 117.928 40.496 118.056C40.56 118.44 40.56 118.76 40.496 119.016C40.496 119.272 40.4 119.624 40.208 120.072ZM70.544 224.704C71.184 225.408 71.664 226.464 71.984 227.872C72.368 229.216 72.592 230.688 72.656 232.288C72.72 233.888 72.656 235.392 72.464 236.8C72.272 238.208 71.952 239.296 71.504 240.064C70.992 241.408 70.416 242.624 69.776 243.712C69.392 244.288 68.976 244.864 68.528 245.44C68.144 245.952 67.728 246.496 67.28 247.072C66.256 248.48 65.2 249.92 64.112 251.392C63.088 252.8 61.84 254.016 60.368 255.04C59.792 255.616 58.768 256.128 57.296 256.576C55.824 257.088 54.128 257.536 52.208 257.92C50.288 258.304 48.336 258.624 46.352 258.88C44.432 259.2 42.736 259.424 41.264 259.552C39.792 259.68 38.768 259.744 38.192 259.744H13.904C13.008 259.744 12.048 259.744 11.024 259.744C10.064 259.744 9.136 259.552 8.24 259.168C7.664 258.976 7.056 258.624 6.416 258.112C5.648 257.472 4.912 256.704 4.208 255.808C3.568 254.912 3.088 253.952 2.768 252.928C2.64 252.416 2.544 251.84 2.48 251.2C2.48 250.56 2.48 249.952 2.48 249.376V196.576C2.48 195.872 2.48 195.2 2.48 194.56C2.544 193.856 2.608 193.184 2.672 192.544C2.736 192.416 2.768 192.256 2.768 192.064C2.832 191.808 2.896 191.648 2.96 191.584C3.28 190.88 3.728 190.336 4.304 189.952C4.88 189.504 5.424 189.056 5.936 188.608C6.448 188.224 6.96 187.808 7.472 187.36C8.048 186.912 8.656 186.56 9.296 186.304C9.808 186.048 10.384 185.888 11.024 185.824C11.664 185.76 12.272 185.696 12.848 185.632C13.872 185.568 14.864 185.568 15.824 185.632C16.784 185.632 17.776 185.632 18.8 185.632H35.888C36.592 185.632 37.616 185.632 38.96 185.632C40.368 185.632 41.84 185.664 43.376 185.728C44.976 185.728 46.448 185.792 47.792 185.92C49.2 186.048 50.256 186.208 50.96 186.4C51.92 186.592 53.264 186.88 54.992 187.264C56.784 187.584 58.544 188.032 60.272 188.608C62 189.12 63.344 189.856 64.304 190.816C65.264 191.776 66.224 193.024 67.184 194.56C68.144 196.032 68.976 197.536 69.68 199.072C70.384 200.608 70.832 201.856 71.024 202.816C71.216 203.968 71.28 205.184 71.216 206.464C71.216 207.68 71.024 208.832 70.64 209.92C70.384 210.752 70.032 211.552 69.584 212.32C69.2 213.024 68.752 213.728 68.24 214.432C67.984 214.752 67.728 215.072 67.472 215.392C67.28 215.712 67.088 216.032 66.896 216.352C66.832 216.48 66.736 216.64 66.608 216.832C66.48 217.024 66.416 217.184 66.416 217.312C66.352 217.44 66.352 217.632 66.416 217.888C66.48 218.08 66.512 218.24 66.512 218.368C66.576 218.56 66.608 218.784 66.608 219.04C66.608 219.232 66.64 219.392 66.704 219.52C66.832 219.776 66.992 220.032 67.184 220.288C67.376 220.48 67.536 220.672 67.664 220.864C68.176 221.504 68.688 222.144 69.2 222.784C69.712 223.36 70.16 224 70.544 224.704ZM65.84 247.456C66.544 246.752 67.184 245.664 67.76 244.192C68.336 242.656 68.784 241.024 69.104 239.296C69.424 237.504 69.584 235.872 69.584 234.4C69.584 232.864 69.392 231.744 69.008 231.04C68.624 229.696 68.048 228.448 67.28 227.296C66.512 226.08 65.616 224.896 64.592 223.744C64.464 223.488 64.272 223.264 64.016 223.072C63.824 222.816 63.664 222.56 63.536 222.304C63.472 222.112 63.408 221.888 63.344 221.632C63.344 221.376 63.344 221.152 63.344 220.96C63.216 220.576 63.184 220.288 63.248 220.096C63.248 219.968 63.28 219.84 63.344 219.712C63.472 219.52 63.568 219.36 63.632 219.232C63.888 218.848 64.112 218.496 64.304 218.176C64.56 217.792 64.816 217.44 65.072 217.12C65.584 216.416 66.032 215.712 66.416 215.008C66.8 214.304 67.12 213.6 67.376 212.896C67.76 211.744 67.984 210.56 68.048 209.344C68.112 208.128 68.08 206.912 67.952 205.696C67.76 204.736 67.184 203.424 66.224 201.76C65.264 200.032 64.176 198.304 62.96 196.576C61.808 194.848 60.752 193.536 59.792 192.64C59.088 191.936 57.776 191.328 55.856 190.816C54 190.304 51.952 189.92 49.712 189.664C47.536 189.344 45.488 189.12 43.568 188.992C41.712 188.864 40.432 188.8 39.728 188.8H21.584C20.176 188.8 18.8 188.8 17.456 188.8C16.112 188.736 14.736 188.768 13.328 188.896C12.88 188.896 12.368 188.928 11.792 188.992C11.216 189.056 10.704 189.184 10.256 189.376L9.2 190.144C8.88 190.272 8.688 190.432 8.624 190.624C8.432 190.816 8.272 191.104 8.144 191.488C7.824 192.128 7.6 192.768 7.472 193.408C7.408 194.048 7.376 194.72 7.376 195.424C7.312 196.832 7.28 198.464 7.28 200.32C7.28 202.112 7.28 203.744 7.28 205.216V248.704C7.344 249.408 7.408 250.112 7.472 250.816C7.536 251.456 7.696 252.096 7.952 252.736C8.08 253.248 8.208 253.6 8.336 253.792L9.104 254.464C9.232 254.528 9.36 254.624 9.488 254.752C9.616 254.88 9.744 255.008 9.872 255.136C10.512 255.456 11.216 255.68 11.984 255.808C12.752 255.872 13.456 255.936 14.096 256H40.976C41.68 256 42.8 255.968 44.336 255.904C45.872 255.84 47.504 255.712 49.232 255.52C50.96 255.328 52.592 255.072 54.128 254.752C55.664 254.432 56.784 254.016 57.488 253.504C58.96 252.864 60.464 252.064 62 251.104C63.536 250.08 64.816 248.864 65.84 247.456ZM32.816 212.896C32.688 212.768 32.592 212.608 32.528 212.416C32.464 212.224 32.368 212.096 32.24 212.032C31.984 211.584 31.76 211.104 31.568 210.592C31.44 210.08 31.408 209.568 31.472 209.056C31.536 208.928 31.6 208.768 31.664 208.576C31.728 208.384 31.792 208.192 31.856 208C31.92 207.872 31.984 207.712 32.048 207.52C32.112 207.264 32.176 207.072 32.24 206.944C32.304 206.88 32.464 206.784 32.72 206.656C32.912 206.528 33.104 206.368 33.296 206.176C33.552 205.92 33.808 205.76 34.064 205.696C34.256 205.632 34.48 205.6 34.736 205.6C34.992 205.6 35.216 205.568 35.408 205.504C36.112 205.376 36.784 205.376 37.424 205.504C38.064 205.568 38.704 205.696 39.344 205.888C39.536 205.952 39.728 206.016 39.92 206.08C40.112 206.08 40.272 206.144 40.4 206.272C40.592 206.336 40.752 206.496 40.88 206.752C41.072 206.944 41.296 207.2 41.552 207.52C41.68 207.776 41.808 208.064 41.936 208.384C42.128 208.64 42.256 208.928 42.32 209.248C42.32 209.504 42.288 209.664 42.224 209.728C42.224 209.984 42.224 210.272 42.224 210.592C42.224 210.848 42.16 211.072 42.032 211.264C41.968 211.392 41.84 211.552 41.648 211.744C41.52 211.872 41.392 212 41.264 212.128C41.136 212.384 40.976 212.608 40.784 212.8C40.656 212.928 40.464 213.024 40.208 213.088C39.952 213.152 39.728 213.248 39.536 213.376C38.704 213.696 37.776 213.888 36.752 213.952C35.728 214.016 34.832 213.856 34.064 213.472C33.872 213.344 33.648 213.248 33.392 213.184C33.136 213.056 32.944 212.96 32.816 212.896ZM42.8 232.096C42.928 232.224 43.024 232.384 43.088 232.576C43.216 232.768 43.312 232.96 43.376 233.152L43.76 233.824V234.688C43.696 234.88 43.664 235.104 43.664 235.36C43.728 235.552 43.728 235.744 43.664 235.936C43.6 236.192 43.44 236.512 43.184 236.896C42.992 237.28 42.8 237.568 42.608 237.76C42.416 237.952 42.128 238.112 41.744 238.24C41.104 238.688 40.4 238.976 39.632 239.104C38.864 239.232 38.032 239.328 37.136 239.392C36.88 239.392 36.592 239.392 36.272 239.392C36.016 239.392 35.728 239.36 35.408 239.296C35.152 239.232 34.928 239.168 34.736 239.104C34.544 239.04 34.352 238.976 34.16 238.912L33.392 238.624C33.328 238.56 33.232 238.464 33.104 238.336C33.04 238.208 32.944 238.112 32.816 238.048C32.752 237.92 32.624 237.792 32.432 237.664C32.24 237.472 32.112 237.28 32.048 237.088C31.984 236.96 31.92 236.832 31.856 236.704C31.856 236.512 31.856 236.384 31.856 236.32C31.792 236.128 31.696 235.936 31.568 235.744C31.504 235.488 31.472 235.232 31.472 234.976C31.472 234.656 31.536 234.304 31.664 233.92C31.664 233.728 31.664 233.536 31.664 233.344C31.728 233.088 31.792 232.896 31.856 232.768C31.92 232.576 32.144 232.288 32.528 231.904C32.656 231.776 32.752 231.648 32.816 231.52C32.944 231.328 33.04 231.2 33.104 231.136C33.232 231.008 33.392 230.912 33.584 230.848C33.84 230.784 34 230.72 34.064 230.656C34.576 230.464 35.088 230.336 35.6 230.272C36.112 230.208 36.624 230.176 37.136 230.176C37.776 230.176 38.448 230.24 39.152 230.368C39.92 230.432 40.592 230.624 41.168 230.944C41.424 231.008 41.712 231.168 42.032 231.424C42.352 231.68 42.608 231.904 42.8 232.096Z" fill="#D50000"/>
</svg>
