<svg width="402" height="57" viewBox="0 0 402 57" fill="none" xmlns="http://www.w3.org/2000/svg">
<path d="M59.776 38.432V47.328C59.776 48.0533 59.7547 48.8213 59.712 49.632C59.712 50.4427 59.4773 51.168 59.008 51.808C58.7093 52.2347 58.304 52.5973 57.792 52.896C57.3227 53.1947 56.8533 53.4507 56.384 53.664C55.744 54.0053 54.912 54.24 53.888 54.368C52.9067 54.5387 51.904 54.624 50.88 54.624C49.856 54.624 49.024 54.624 48.384 54.624C47.7867 54.624 47.168 54.624 46.528 54.624C45.888 54.6667 45.2693 54.6027 44.672 54.432C43.648 54.2187 42.88 53.7493 42.368 53.024C42.1973 52.768 42.048 52.448 41.92 52.064C41.792 51.7227 41.6427 51.4027 41.472 51.104C41.4293 51.0187 41.3867 50.912 41.344 50.784C41.344 50.6133 41.3013 50.5067 41.216 50.464C41.1307 50.3787 40.9813 50.3573 40.768 50.4C40.5547 50.4 40.4053 50.3787 40.32 50.336C40.2773 50.336 40.2347 50.336 40.192 50.336C40.192 50.2933 40.1707 50.272 40.128 50.272C40.0853 50.3147 40.064 50.3573 40.064 50.4C40.064 50.4427 40.0427 50.5067 40 50.592L39.424 51.424C39.1253 51.808 38.8053 52.1493 38.464 52.448C38.1653 52.7893 37.8027 53.0667 37.376 53.28C36.736 53.8347 35.776 54.1973 34.496 54.368C33.2587 54.5813 32 54.6667 30.72 54.624C29.44 54.624 28.48 54.624 27.84 54.624C27.2427 54.624 26.6027 54.6027 25.92 54.56C25.2373 54.56 24.5973 54.4107 24 54.112C23.8293 54.0267 23.616 53.8987 23.36 53.728C23.104 53.5573 22.912 53.3867 22.784 53.216C22.656 53.088 22.5493 52.896 22.464 52.64C22.2933 52.2987 22.144 51.9787 22.016 51.68C21.888 51.3387 21.7813 51.0187 21.696 50.72C21.44 50.08 21.184 49.44 20.928 48.8C20.672 48.16 20.48 47.4987 20.352 46.816C20.2667 46.1333 20.224 45.4507 20.224 44.768C20.224 44.0853 20.224 43.4027 20.224 42.72V37.408C20.224 37.3227 20.224 37.28 20.224 37.28C20.224 37.28 20.224 37.3227 20.224 37.408C20.224 37.5787 20.2027 37.728 20.16 37.856C20.16 37.984 20.16 38.1333 20.16 38.304C20.1173 38.8587 20.096 39.456 20.096 40.096C20.1387 40.6933 20.16 41.2907 20.16 41.888V47.648C20.16 48.1173 20.16 48.6293 20.16 49.184C20.16 49.696 20.0747 50.1867 19.904 50.656C19.648 51.6373 19.1147 52.384 18.304 52.896C18.048 53.1093 17.7493 53.28 17.408 53.408C17.1093 53.5787 16.8107 53.728 16.512 53.856C15.872 54.1973 14.976 54.4107 13.824 54.496C12.7147 54.624 11.584 54.6667 10.432 54.624C9.32267 54.624 8.448 54.624 7.808 54.624C7.25333 54.624 6.67733 54.6027 6.08 54.56C5.48267 54.56 4.90667 54.4747 4.352 54.304C4.26667 54.2613 4.13867 54.2187 3.968 54.176C3.84 54.1333 3.73333 54.0907 3.648 54.048C3.30667 53.8347 3.008 53.536 2.752 53.152C2.53867 52.8107 2.32533 52.4693 2.112 52.128C1.94133 51.7867 1.792 51.4453 1.664 51.104C1.57867 50.7627 1.472 50.4427 1.344 50.144C1.13067 49.5467 0.917333 48.9493 0.704 48.352C0.490667 47.7547 0.341333 47.136 0.256 46.496C0.213333 45.9413 0.170667 45.3867 0.128 44.832C0.128 44.2347 0.128 43.6587 0.128 43.104V21.088C0.128 20.704 0.128 20.32 0.128 19.936C0.170667 19.552 0.256 19.1893 0.384 18.848C0.426667 18.6773 0.469333 18.5067 0.512 18.336C0.554667 18.1227 0.618667 17.9307 0.704 17.76C0.746667 17.6747 0.810667 17.6107 0.896 17.568C0.981333 17.4827 1.04533 17.4187 1.088 17.376C1.17333 17.2907 1.25867 17.184 1.344 17.056C1.472 16.8853 1.6 16.7787 1.728 16.736C1.81333 16.6507 1.92 16.5867 2.048 16.544C2.21867 16.5013 2.34667 16.4587 2.432 16.416C2.98667 16.2027 3.54133 16.096 4.096 16.096C4.69333 16.0533 5.26933 16.032 5.824 16.032C6.67733 16.032 7.552 16.032 8.448 16.032C9.38667 15.9893 10.2827 16.032 11.136 16.16C11.648 16.2027 12.1387 16.3093 12.608 16.48C13.12 16.6507 13.632 16.8213 14.144 16.992C14.528 17.1627 14.8693 17.2693 15.168 17.312C15.8933 17.3973 16.576 17.312 17.216 17.056C17.8987 16.8 18.5813 16.5653 19.264 16.352C20.16 16.0107 21.0773 15.776 22.016 15.648C22.9973 15.52 23.9573 15.4987 24.896 15.584C25.6213 15.6267 26.3467 15.7333 27.072 15.904C27.7973 16.0747 28.48 16.3307 29.12 16.672C29.632 16.928 30.1227 17.2267 30.592 17.568C31.0613 17.9093 31.552 18.1867 32.064 18.4C32.192 18.4427 32.32 18.5067 32.448 18.592C32.576 18.6773 32.704 18.72 32.832 18.72C33.8133 18.8907 34.7093 18.6987 35.52 18.144C36.3733 17.5467 37.2053 17.0773 38.016 16.736C38.8693 16.3093 39.7867 15.9893 40.768 15.776C41.7493 15.5627 42.7093 15.4987 43.648 15.584C45.5253 15.6267 47.3387 16.16 49.088 17.184C49.5573 17.44 49.984 17.7173 50.368 18.016C50.752 18.3147 51.1573 18.6347 51.584 18.976C52.5227 19.7013 53.4827 20.4267 54.464 21.152C55.488 21.8773 56.3413 22.7307 57.024 23.712C57.408 24.096 57.7493 24.7787 58.048 25.76C58.3467 26.7413 58.6027 27.872 58.816 29.152C59.0293 30.3893 59.2 31.648 59.328 32.928C59.4987 34.208 59.6053 35.3387 59.648 36.32C59.7333 37.3013 59.776 38.0053 59.776 38.432ZM55.68 24.16C55.3813 23.5627 55.0187 22.9867 54.592 22.432C54.208 21.8347 53.76 21.3227 53.248 20.896C52.7787 20.4267 52.0533 20 51.072 19.616C50.0907 19.232 49.024 18.9333 47.872 18.72C46.72 18.464 45.6533 18.336 44.672 18.336C43.6907 18.336 42.9653 18.464 42.496 18.72C41.8987 18.8907 41.3227 19.1253 40.768 19.424C40.2133 19.7227 39.6587 20.0427 39.104 20.384C38.848 20.5547 38.5707 20.7467 38.272 20.96C38.016 21.1307 37.7387 21.2587 37.44 21.344L36.672 21.536C36.6293 21.536 36.544 21.5573 36.416 21.6C36.3307 21.6 36.2453 21.6 36.16 21.6C36.0747 21.6 35.968 21.5787 35.84 21.536C35.712 21.4933 35.584 21.472 35.456 21.472C34.9013 21.3013 34.3893 21.0453 33.92 20.704C33.4507 20.3627 32.9813 20.0427 32.512 19.744C30.848 18.8053 29.0347 18.2933 27.072 18.208C25.0667 18.1227 23.168 18.5067 21.376 19.36C20.736 19.616 20.096 19.9147 19.456 20.256C18.816 20.5547 18.1333 20.6187 17.408 20.448C17.1947 20.3627 16.9813 20.256 16.768 20.128C16.4693 19.9573 16.1707 19.7867 15.872 19.616C15.5733 19.4453 15.2747 19.296 14.976 19.168C14.0373 18.784 13.0133 18.6133 11.904 18.656C10.8373 18.6987 9.81333 18.72 8.832 18.72C8.27733 18.72 7.70133 18.72 7.104 18.72C6.50667 18.6773 5.952 18.7413 5.44 18.912C4.416 19.2107 3.712 19.7867 3.328 20.64C3.15733 20.9387 3.05067 21.28 3.008 21.664C2.96533 22.0053 2.944 22.3467 2.944 22.688C2.90133 23.2427 2.88 23.84 2.88 24.48C2.88 25.0773 2.88 25.6747 2.88 26.272V46.368C2.88 46.9653 2.90133 47.5627 2.944 48.16C2.98667 48.7573 3.11467 49.3547 3.328 49.952C3.41333 50.0373 3.456 50.144 3.456 50.272C3.49867 50.4 3.54133 50.5067 3.584 50.592C3.79733 50.8907 4.07467 51.1253 4.416 51.296C4.8 51.4667 5.16267 51.616 5.504 51.744C6.18667 51.9147 6.912 52 7.68 52C8.448 52 9.19467 52 9.92 52C10.688 52 11.4773 52 12.288 52C13.0987 52.0427 13.888 51.9787 14.656 51.808C14.9973 51.7227 15.36 51.616 15.744 51.488C16.128 51.36 16.4693 51.168 16.768 50.912C16.896 50.784 17.0027 50.592 17.088 50.336C17.1733 50.2507 17.2373 50.1653 17.28 50.08C17.3653 49.952 17.4293 49.8453 17.472 49.76C17.6427 49.376 17.728 48.9707 17.728 48.544C17.7707 48.1173 17.8133 47.712 17.856 47.328C17.8987 46.688 17.92 45.8347 17.92 44.768C17.92 43.6587 17.8987 42.5707 17.856 41.504C17.856 40.4373 17.856 39.584 17.856 38.944C17.856 37.9627 17.8347 36.8747 17.792 35.68C17.792 34.4853 17.9413 33.4187 18.24 32.48C18.3253 32.224 18.4107 32.0107 18.496 31.84C18.624 31.6267 18.752 31.4347 18.88 31.264C18.9653 31.1787 19.0293 31.0933 19.072 31.008C19.1147 30.9227 19.1573 30.8587 19.2 30.816C19.2853 30.7307 19.4133 30.688 19.584 30.688C19.7547 30.6453 19.904 30.6027 20.032 30.56C20.1173 30.5173 20.2027 30.4747 20.288 30.432C20.416 30.3893 20.5013 30.3893 20.544 30.432C20.6293 30.432 20.736 30.4747 20.864 30.56C21.0347 30.6027 21.1627 30.6453 21.248 30.688L21.76 30.88C21.8453 30.9227 21.9307 31.0293 22.016 31.2C22.1013 31.3707 22.1653 31.4987 22.208 31.584C22.6347 32.1387 22.8693 32.8213 22.912 33.632C22.9547 34.4 22.976 35.1253 22.976 35.808C22.976 36.2773 22.976 37.0453 22.976 38.112C22.976 39.1787 22.9547 40.352 22.912 41.632C22.912 42.8693 22.912 44.0213 22.912 45.088C22.9547 46.1547 22.9973 46.9227 23.04 47.392C23.04 47.776 23.0613 48.1813 23.104 48.608C23.1467 48.992 23.232 49.3547 23.36 49.696C23.7013 50.592 24.32 51.232 25.216 51.616C25.6853 51.7867 26.176 51.8933 26.688 51.936C27.2427 51.9787 27.7547 52 28.224 52C29.2053 52 30.1867 52 31.168 52C32.1493 52.0427 33.1093 52 34.048 51.872C34.6453 51.7867 35.2213 51.6373 35.776 51.424C36.3307 51.168 36.7573 50.784 37.056 50.272C37.1413 50.1867 37.184 50.08 37.184 49.952C37.184 49.824 37.2053 49.7173 37.248 49.632C37.4613 49.12 37.5893 48.608 37.632 48.096C37.6747 47.5413 37.696 46.9867 37.696 46.432C37.7387 45.792 37.7387 44.96 37.696 43.936C37.696 42.912 37.696 41.9093 37.696 40.928C37.696 39.904 37.696 39.072 37.696 38.432V34.912C37.7387 34.4 37.7813 33.9093 37.824 33.44C37.9093 32.928 38.0373 32.4587 38.208 32.032C38.2933 31.9467 38.3573 31.84 38.4 31.712C38.4427 31.5413 38.4853 31.4347 38.528 31.392C38.6133 31.264 38.72 31.1573 38.848 31.072C38.976 30.9867 39.0827 30.9013 39.168 30.816C39.2533 30.7733 39.3173 30.7307 39.36 30.688C39.4453 30.6027 39.5093 30.5387 39.552 30.496C39.68 30.4533 39.8293 30.4533 40 30.496C40.1707 30.496 40.32 30.5173 40.448 30.56C40.5333 30.56 40.6187 30.56 40.704 30.56C40.832 30.5173 40.9173 30.5173 40.96 30.56C41.0453 30.6027 41.152 30.6667 41.28 30.752C41.408 30.8373 41.4933 30.9227 41.536 31.008C41.6213 31.0933 41.7067 31.1787 41.792 31.264C41.92 31.3493 42.0053 31.4347 42.048 31.52C42.1333 31.6053 42.1973 31.7333 42.24 31.904C42.2827 32.0747 42.3253 32.224 42.368 32.352C42.5813 32.9067 42.688 33.4827 42.688 34.08C42.7307 34.6773 42.752 35.2747 42.752 35.872V43.488C42.752 44.1707 42.752 44.8747 42.752 45.6C42.752 46.3253 42.7733 47.0507 42.816 47.776C42.8587 48.2027 42.9227 48.672 43.008 49.184C43.0933 49.6533 43.2427 50.08 43.456 50.464C43.712 50.848 44.0533 51.168 44.48 51.424C44.9493 51.6373 45.3973 51.7867 45.824 51.872C46.2933 51.9573 46.784 52 47.296 52C47.808 52 48.2987 52 48.768 52C49.5787 52 50.3893 52 51.2 52C52.0533 52 52.8853 51.9787 53.696 51.936C53.952 51.936 54.2293 51.9147 54.528 51.872C54.8693 51.8293 55.1467 51.744 55.36 51.616C55.5733 51.5307 55.7653 51.4027 55.936 51.232C56.0213 51.1467 56.128 51.0827 56.256 51.04C56.4267 50.9547 56.5333 50.8907 56.576 50.848L56.832 50.4C57.0453 49.9307 57.216 49.3973 57.344 48.8C57.472 47.9467 57.5147 47.1147 57.472 46.304C57.472 45.4507 57.472 44.6187 57.472 43.808V34.976C57.472 34.5067 57.4507 33.7813 57.408 32.8C57.3653 31.8187 57.28 30.7733 57.152 29.664C57.0667 28.512 56.896 27.4453 56.64 26.464C56.4267 25.44 56.1067 24.672 55.68 24.16ZM102.559 35.232C102.601 36.1707 102.537 37.3867 102.367 38.88C102.239 40.3733 101.983 41.6533 101.599 42.72C101.172 43.6587 100.639 44.6827 99.9985 45.792C99.3585 46.9013 98.6545 47.9467 97.8865 48.928C97.2038 49.824 96.4572 50.6773 95.6465 51.488C94.8785 52.2987 94.0038 53.0027 93.0225 53.6C92.0838 54.2827 90.8678 54.816 89.3745 55.2C87.8812 55.584 86.6438 55.8827 85.6625 56.096C85.1932 56.224 84.4892 56.3093 83.5505 56.352C82.6545 56.3947 81.6732 56.416 80.6065 56.416C79.5825 56.416 78.6012 56.3733 77.6625 56.288C76.7665 56.2027 76.0838 56.0747 75.6145 55.904C74.6758 55.6907 73.6518 55.4133 72.5425 55.072C71.4332 54.7733 70.3878 54.3467 69.4065 53.792C68.4678 53.1093 67.4865 52.256 66.4625 51.232C65.4812 50.1653 64.6065 49.1627 63.8385 48.224C63.2838 47.3707 62.7292 46.496 62.1745 45.6C61.6198 44.704 61.1505 43.7867 60.7665 42.848C60.4252 42.208 60.1692 41.376 59.9985 40.352C59.7852 39.328 59.6358 38.3253 59.5505 37.344C59.4652 36.32 59.4225 35.488 59.4225 34.848C59.4225 34.208 59.4438 33.4187 59.4865 32.48C59.5292 31.5413 59.6358 30.6027 59.8065 29.664C59.9345 28.7253 60.1265 27.936 60.3825 27.296C60.5958 26.784 60.8092 26.272 61.0225 25.76C61.2785 25.2053 61.5558 24.7147 61.8545 24.288C62.0678 23.9467 62.2812 23.6267 62.4945 23.328C62.7505 23.0293 63.0065 22.7307 63.2625 22.432C63.6465 22.048 64.4998 21.6213 65.8225 21.152C67.1452 20.64 68.6812 20.1493 70.4305 19.68C72.1798 19.2107 73.9292 18.784 75.6785 18.4C77.4278 18.016 78.9638 17.76 80.2865 17.632C81.6092 17.4613 82.4625 17.4613 82.8465 17.632C83.3158 17.76 84.1692 17.9307 85.4065 18.144C86.6865 18.3573 88.0518 18.6133 89.5025 18.912C90.9958 19.168 92.3612 19.488 93.5985 19.872C94.8785 20.256 95.7532 20.6827 96.2225 21.152C96.8625 21.7493 97.5665 22.56 98.3345 23.584C99.1025 24.5653 99.8065 25.568 100.447 26.592C101.087 27.5733 101.556 28.384 101.855 29.024C102.153 29.9627 102.345 30.9867 102.431 32.096C102.516 33.2053 102.559 34.2507 102.559 35.232ZM94.3025 48.736C94.6865 48.352 95.0918 47.6693 95.5185 46.688C95.9878 45.7067 96.4358 44.5973 96.8625 43.36C97.3318 42.08 97.7372 40.8213 98.0785 39.584C98.4625 38.3467 98.7612 37.2373 98.9745 36.256C99.1878 35.2747 99.2732 34.592 99.2305 34.208C99.1878 33.7387 99.0812 33.0347 98.9105 32.096C98.7398 31.1147 98.5052 30.0693 98.2065 28.96C97.9078 27.8507 97.5452 26.8267 97.1185 25.888C96.7345 24.9067 96.3078 24.1813 95.8385 23.712C95.4545 23.328 94.7505 22.9013 93.7265 22.432C92.7452 21.92 91.5932 21.4293 90.2705 20.96C88.9478 20.448 87.6252 20 86.3025 19.616C84.9798 19.1893 83.8065 18.848 82.7825 18.592C81.8012 18.2933 81.1185 18.144 80.7345 18.144C80.0518 18.1013 79.3478 18.1227 78.6225 18.208C77.9398 18.2507 77.2358 18.3147 76.5105 18.4C75.5718 18.528 74.4838 18.7413 73.2465 19.04C72.0092 19.296 70.8572 19.7227 69.7905 20.32C69.1505 20.6613 68.5318 21.0453 67.9345 21.472C67.3798 21.856 66.8252 22.304 66.2705 22.816C65.3318 23.7547 64.5212 24.9707 63.8385 26.464C63.1558 27.9573 62.6652 29.1947 62.3665 30.176C62.1958 31.1147 62.0892 32.1813 62.0465 33.376C62.0038 34.528 61.9825 35.5947 61.9825 36.576C62.0252 37.0453 62.1532 37.8133 62.3665 38.88C62.6225 39.904 62.9425 41.0347 63.3265 42.272C63.7105 43.4667 64.1372 44.5973 64.6065 45.664C65.0758 46.688 65.5452 47.4347 66.0145 47.904C66.9958 48.8427 68.1478 49.632 69.4705 50.272C70.8358 50.8693 71.9878 51.3387 72.9265 51.68C73.3958 51.9787 74.2278 52.192 75.4225 52.32C76.6598 52.4907 78.0038 52.5973 79.4545 52.64C80.9052 52.6827 82.2278 52.6613 83.4225 52.576C84.6598 52.4907 85.5132 52.3627 85.9825 52.192C86.9638 52.0213 87.9452 51.7867 88.9265 51.488C89.9505 51.1893 90.9318 50.8053 91.8705 50.336C92.8092 49.824 93.6198 49.2907 94.3025 48.736ZM83.1025 31.264C83.3158 31.8187 83.4225 32.3947 83.4225 32.992C83.4652 33.5893 83.4865 34.1867 83.4865 34.784C83.5292 35.424 83.5292 36.0853 83.4865 36.768C83.4865 37.408 83.4225 38.048 83.2945 38.688C83.2092 39.0293 83.1025 39.4133 82.9745 39.84C82.8465 40.224 82.6545 40.5653 82.3985 40.864C82.2705 40.992 82.0785 41.1413 81.8225 41.312C81.6092 41.44 81.4385 41.5467 81.3105 41.632C81.2252 41.6747 81.0972 41.696 80.9265 41.696C80.7985 41.6533 80.6705 41.632 80.5425 41.632C80.4998 41.632 80.4145 41.6533 80.2865 41.696C80.1585 41.696 80.0518 41.696 79.9665 41.696C79.9238 41.6533 79.8598 41.6107 79.7745 41.568C79.6892 41.4827 79.6038 41.4187 79.5185 41.376L78.8785 40.992C78.7505 40.864 78.6225 40.6933 78.4945 40.48C78.4092 40.224 78.3238 40.0107 78.2385 39.84C78.0678 39.4987 77.9612 39.136 77.9185 38.752C77.8758 38.3253 77.8332 37.9413 77.7905 37.6C77.7052 36.704 77.6625 35.808 77.6625 34.912C77.6625 33.9733 77.7478 33.0773 77.9185 32.224C78.0038 31.7547 78.1105 31.3067 78.2385 30.88C78.3665 30.4533 78.6438 30.048 79.0705 29.664C79.2412 29.5787 79.4118 29.472 79.5825 29.344C79.7958 29.1733 79.9878 29.0667 80.1585 29.024L80.6705 29.088C80.7985 29.088 80.9265 29.088 81.0545 29.088C81.2252 29.088 81.3532 29.1093 81.4385 29.152C81.5238 29.1947 81.5878 29.2587 81.6305 29.344C81.7158 29.3867 81.7798 29.4293 81.8225 29.472C81.9505 29.5573 82.0785 29.664 82.2065 29.792C82.3345 29.8773 82.4412 29.9627 82.5265 30.048C82.6545 30.2187 82.7612 30.432 82.8465 30.688C82.9745 30.9013 83.0598 31.0933 83.1025 31.264ZM80.7345 32.096C80.8198 32.096 80.8625 32.1173 80.8625 32.16C80.8625 32.1173 80.7985 32.0533 80.6705 31.968C80.5425 31.84 80.4785 31.776 80.4785 31.776C80.3505 31.776 80.3505 31.84 80.4785 31.968C80.5638 31.968 80.6492 32.0107 80.7345 32.096ZM142.917 36.32C142.96 37.2587 142.981 38.3467 142.981 39.584C142.981 40.7787 142.938 41.9093 142.853 42.976C142.725 43.9147 142.533 45.024 142.277 46.304C142.021 47.584 141.637 48.7147 141.125 49.696C140.698 50.5067 140.165 51.296 139.525 52.064C138.928 52.832 138.266 53.4933 137.541 54.048C136.901 54.688 135.941 55.2 134.661 55.584C133.424 55.968 132.165 56.224 130.885 56.352C129.648 56.48 128.709 56.5013 128.069 56.416C127.344 56.3307 126.618 56.2027 125.893 56.032C125.21 55.8613 124.528 55.648 123.845 55.392C123.205 55.0507 122.565 54.7947 121.925 54.624C121.84 54.5813 121.733 54.5387 121.605 54.496C121.477 54.4533 121.37 54.432 121.285 54.432C121.157 54.432 121.029 54.432 120.901 54.432C120.773 54.4747 120.645 54.5173 120.517 54.56C119.962 54.6453 119.408 54.816 118.853 55.072C118.341 55.3707 117.786 55.584 117.189 55.712C116.378 55.8827 115.525 55.9467 114.629 55.904C113.776 55.904 112.922 55.904 112.069 55.904C111.386 55.904 110.64 55.904 109.829 55.904C109.061 55.904 108.314 55.776 107.589 55.52C107.034 55.3067 106.522 54.9867 106.053 54.56C105.626 54.176 105.178 53.7707 104.709 53.344C104.496 53.1307 104.261 52.896 104.005 52.64C103.792 52.4267 103.578 52.2133 103.365 52C102.64 51.1893 102.149 50.272 101.893 49.248C101.68 48.224 101.552 47.2427 101.509 46.304C101.466 45.3227 101.445 44.2773 101.445 43.168C101.445 42.0587 101.445 41.0347 101.445 40.096V11.104C101.445 10.464 101.424 9.80266 101.381 9.12C101.381 8.43733 101.445 7.79733 101.573 7.2C101.658 6.73066 101.808 6.304 102.021 5.92C102.234 5.49333 102.512 5.13066 102.853 4.832C103.109 4.576 103.429 4.36266 103.813 4.192C104.197 3.97866 104.56 3.808 104.901 3.68C105.541 3.21066 106.48 2.912 107.717 2.784C108.954 2.656 110.192 2.61333 111.429 2.656C112.666 2.656 113.605 2.656 114.245 2.656C115.184 2.656 116.165 2.69866 117.189 2.784C118.256 2.86933 119.088 3.33867 119.685 4.192C119.898 4.49067 120.069 4.832 120.197 5.216C120.325 5.55733 120.41 5.89866 120.453 6.24C120.666 7.05066 120.773 7.904 120.773 8.8C120.773 9.696 120.794 10.5707 120.837 11.424C120.837 11.68 120.837 11.936 120.837 12.192C120.88 12.448 120.922 12.704 120.965 12.96C120.965 13.0453 120.965 13.1733 120.965 13.344C120.965 13.472 120.986 13.5787 121.029 13.664L121.477 14.24C121.562 14.2827 121.626 14.368 121.669 14.496C121.754 14.624 121.84 14.7307 121.925 14.816C122.01 14.8587 122.117 14.88 122.245 14.88C122.373 14.88 122.48 14.9013 122.565 14.944C122.906 15.0293 123.141 15.072 123.269 15.072C123.738 15.1147 124.208 15.072 124.677 14.944C125.189 14.7733 125.68 14.6453 126.149 14.56C127.13 14.3467 128.346 14.2827 129.797 14.368C131.248 14.4107 132.442 14.624 133.381 15.008C133.893 15.1787 134.405 15.3707 134.917 15.584C135.429 15.7973 135.898 16.0747 136.325 16.416C137.434 17.184 138.394 18.08 139.205 19.104C140.016 20.0427 140.634 21.216 141.061 22.624C141.53 24.032 141.893 25.2267 142.149 26.208C142.32 26.6773 142.448 27.3813 142.533 28.32C142.618 29.216 142.682 30.1973 142.725 31.264C142.81 32.3307 142.853 33.3333 142.853 34.272C142.896 35.168 142.917 35.8507 142.917 36.32ZM141.317 38.112C141.402 37.728 141.381 37.024 141.253 36C141.168 34.9333 141.018 33.7387 140.805 32.416C140.592 31.0507 140.336 29.7067 140.037 28.384C139.738 27.0187 139.397 25.824 139.013 24.8C138.672 23.7333 138.309 23.008 137.925 22.624C137.072 21.6427 136.048 20.7893 134.853 20.064C134.384 19.7227 133.872 19.4667 133.317 19.296C132.805 19.0827 132.293 18.8907 131.781 18.72C130.842 18.3787 129.648 18.208 128.197 18.208C126.746 18.1653 125.53 18.2933 124.549 18.592C123.994 18.72 123.44 18.8907 122.885 19.104C122.373 19.3173 121.84 19.4027 121.285 19.36C121.157 19.36 120.986 19.3813 120.773 19.424C120.602 19.424 120.474 19.4027 120.389 19.36C120.346 19.3173 120.282 19.232 120.197 19.104C120.112 18.9333 120.026 18.8267 119.941 18.784C119.813 18.656 119.664 18.464 119.493 18.208C119.45 18.1227 119.429 17.952 119.429 17.696C119.386 17.4827 119.344 17.2693 119.301 17.056C119.301 16.8 119.301 16.5653 119.301 16.352C119.301 15.456 119.301 14.56 119.301 13.664C119.344 12.768 119.322 11.8933 119.237 11.04C119.194 10.656 119.152 10.2507 119.109 9.824C119.109 9.39733 119.024 9.01333 118.853 8.672C118.426 7.776 117.68 7.15733 116.613 6.816C116.186 6.64533 115.696 6.56 115.141 6.56C114.586 6.56 114.074 6.56 113.605 6.56C112.666 6.56 111.706 6.56 110.725 6.56C109.744 6.51733 108.762 6.56 107.781 6.688C107.226 6.73067 106.65 6.88 106.053 7.136C105.498 7.392 105.05 7.75466 104.709 8.224C104.666 8.30933 104.624 8.43733 104.581 8.608C104.538 8.736 104.496 8.84267 104.453 8.928C104.282 9.35466 104.176 9.80266 104.133 10.272C104.09 10.6987 104.048 11.1467 104.005 11.616V40.8C104.005 41.7387 103.984 42.784 103.941 43.936C103.941 45.088 103.962 46.1547 104.005 47.136C104.048 47.5627 104.09 48.0107 104.133 48.48C104.218 48.9493 104.346 49.3973 104.517 49.824C104.56 49.9093 104.602 50.0373 104.645 50.208C104.688 50.336 104.73 50.4427 104.773 50.528C104.858 50.5707 104.944 50.6347 105.029 50.72C105.157 50.7627 105.242 50.8267 105.285 50.912C106.01 51.5093 106.8 51.8293 107.653 51.872C108.378 51.9147 109.082 51.9573 109.765 52C110.49 52 111.194 52 111.877 52C112.56 52 113.221 51.9787 113.861 51.936C114.544 51.8933 115.205 51.7867 115.845 51.616C116.314 51.488 116.784 51.3387 117.253 51.168C117.722 50.9547 118.192 50.784 118.661 50.656C118.746 50.656 118.853 50.6347 118.981 50.592C119.109 50.5493 119.216 50.528 119.301 50.528C119.77 50.528 120.24 50.6347 120.709 50.848C121.221 51.0187 121.69 51.1893 122.117 51.36C122.8 51.616 123.461 51.8293 124.101 52C124.784 52.2133 125.466 52.3627 126.149 52.448C126.618 52.5333 127.344 52.512 128.325 52.384C129.349 52.256 130.416 52.0427 131.525 51.744C132.677 51.4027 133.744 51.0187 134.725 50.592C135.749 50.1653 136.496 49.7173 136.965 49.248C137.69 48.608 138.309 47.8613 138.821 47.008C139.333 46.112 139.781 45.1733 140.165 44.192C140.506 43.2107 140.762 42.1867 140.933 41.12C141.146 40.0533 141.274 39.0507 141.317 38.112ZM125.765 34.912C125.765 35.6373 125.744 36.4053 125.701 37.216C125.658 38.0267 125.445 38.7733 125.061 39.456C125.018 39.5413 124.954 39.6693 124.869 39.84C124.826 40.0107 124.762 40.1387 124.677 40.224C124.592 40.2667 124.464 40.3307 124.293 40.416C124.165 40.4587 124.058 40.5227 123.973 40.608C123.888 40.6507 123.781 40.7147 123.653 40.8C123.568 40.8427 123.461 40.8853 123.333 40.928C123.248 40.9707 123.141 40.992 123.013 40.992C122.885 40.992 122.778 40.992 122.693 40.992C122.565 40.992 122.437 41.0133 122.309 41.056C122.181 41.056 122.074 41.0347 121.989 40.992C121.562 40.9067 121.136 40.736 120.709 40.48C120.325 40.1813 120.026 39.84 119.813 39.456C119.77 39.3707 119.728 39.2427 119.685 39.072C119.642 38.9013 119.6 38.752 119.557 38.624C119.386 38.0693 119.28 37.5147 119.237 36.96C119.237 36.4053 119.237 35.8507 119.237 35.296C119.237 34.6987 119.258 34.1013 119.301 33.504C119.344 32.864 119.472 32.2667 119.685 31.712C119.728 31.6267 119.749 31.52 119.749 31.392C119.792 31.2213 119.834 31.0933 119.877 31.008L120.261 30.688C120.346 30.6027 120.432 30.496 120.517 30.368C120.645 30.24 120.752 30.1547 120.837 30.112C121.008 30.0267 121.221 29.9413 121.477 29.856C121.776 29.7707 122.01 29.7067 122.181 29.664L122.821 29.728C122.906 29.7707 123.013 29.792 123.141 29.792C123.312 29.792 123.44 29.8133 123.525 29.856C123.61 29.8987 123.696 29.9627 123.781 30.048C123.909 30.0907 124.016 30.1333 124.101 30.176C124.186 30.2187 124.293 30.2827 124.421 30.368C124.549 30.4107 124.634 30.4747 124.677 30.56C124.805 30.7733 124.912 30.9867 124.997 31.2C125.338 31.712 125.552 32.288 125.637 32.928C125.722 33.5253 125.765 34.1867 125.765 34.912ZM180.046 41.76C180.003 42.6987 179.896 43.808 179.726 45.088C179.555 46.368 179.15 47.4987 178.51 48.48C177.87 49.12 176.974 49.824 175.822 50.592C174.67 51.3173 173.518 51.9787 172.366 52.576C171.214 53.1733 170.318 53.6 169.678 53.856C169.294 54.1547 168.462 54.3467 167.182 54.432C165.944 54.56 164.472 54.6027 162.766 54.56C161.102 54.56 159.416 54.4747 157.71 54.304C156.003 54.1333 154.51 53.8987 153.23 53.6C151.992 53.344 151.182 53.024 150.798 52.64C149.859 52.2133 148.686 51.744 147.278 51.232C145.912 50.6773 144.739 49.9947 143.758 49.184C143.203 48.672 142.669 48.0747 142.157 47.392C141.645 46.6667 141.304 45.92 141.133 45.152C140.92 44.384 140.984 43.68 141.326 43.04C141.539 42.5707 141.88 42.144 142.349 41.76C142.776 41.3333 143.16 40.928 143.502 40.544C143.587 40.416 143.694 40.3093 143.822 40.224C143.95 40.096 144.056 39.9893 144.142 39.904C144.227 39.776 144.312 39.5413 144.398 39.2C144.483 39.1147 144.547 39.008 144.59 38.88C144.675 38.752 144.718 38.6453 144.718 38.56C144.76 38.4747 144.76 38.368 144.718 38.24C144.675 38.0693 144.632 37.9413 144.59 37.856C144.59 37.7707 144.59 37.664 144.59 37.536C144.59 37.408 144.547 37.3013 144.462 37.216C144.419 37.088 144.312 36.896 144.142 36.64C143.928 36.2987 143.694 35.9573 143.438 35.616C143.181 35.2747 142.947 34.9333 142.733 34.592C142.179 33.6107 141.773 32.5227 141.517 31.328C141.261 30.1333 141.219 29.0667 141.389 28.128C141.56 27.488 141.944 26.6987 142.541 25.76C143.096 24.7787 143.736 23.8187 144.462 22.88C145.23 21.9413 145.934 21.152 146.574 20.512C147.342 19.7867 148.11 19.0827 148.878 18.4C149.688 17.6747 150.563 17.0347 151.502 16.48C151.886 16.096 152.654 15.7547 153.806 15.456C155 15.1147 156.366 14.8373 157.902 14.624C159.48 14.4107 161.038 14.2613 162.574 14.176C164.11 14.0907 165.454 14.0907 166.606 14.176C167.8 14.2613 168.59 14.4533 168.974 14.752C169.955 15.0507 171.043 15.4773 172.238 16.032C173.432 16.544 174.499 17.184 175.438 17.952C175.907 18.336 176.334 18.7413 176.718 19.168C177.144 19.5947 177.507 20.064 177.806 20.576C178.104 21.216 178.296 21.8773 178.382 22.56C178.424 22.6453 178.467 22.7733 178.51 22.944C178.552 23.072 178.552 23.1787 178.51 23.264C178.467 23.3493 178.382 23.4347 178.254 23.52C178.168 23.6053 178.083 23.6907 177.998 23.776C177.955 23.8187 177.891 23.904 177.806 24.032C177.72 24.16 177.635 24.224 177.55 24.224C177.507 24.2667 177.464 24.2667 177.422 24.224C177.379 24.1387 177.315 24.0747 177.229 24.032C177.102 23.9467 176.974 23.8613 176.846 23.776C176.718 23.6907 176.611 23.6053 176.526 23.52C176.312 23.3493 176.099 23.1787 175.886 23.008C175.672 22.7947 175.459 22.6453 175.246 22.56C175.118 22.4747 174.968 22.432 174.798 22.432C174.627 22.3893 174.478 22.3467 174.35 22.304C174.094 22.2187 173.902 22.176 173.774 22.176C173.603 22.176 173.432 22.2187 173.262 22.304C172.963 22.3467 172.686 22.432 172.43 22.56C172.174 22.6453 171.918 22.752 171.662 22.88C170.979 23.3067 170.275 23.776 169.55 24.288C168.867 24.7573 168.227 25.248 167.63 25.76C167.118 26.144 166.712 26.5707 166.414 27.04C166.371 27.0827 166.307 27.168 166.222 27.296C166.136 27.3813 166.094 27.4453 166.094 27.488C166.094 27.6587 166.179 27.8293 166.35 28C166.392 28.0427 166.435 28.128 166.478 28.256C166.52 28.3413 166.563 28.4267 166.606 28.512C166.648 28.5547 166.734 28.576 166.862 28.576C166.99 28.576 167.075 28.5973 167.118 28.64C167.416 28.6827 167.694 28.7253 167.95 28.768C168.248 28.8107 168.547 28.8533 168.846 28.896C170.936 28.9813 173.006 28.9813 175.054 28.896C175.395 28.896 175.736 28.896 176.078 28.896C176.419 28.8533 176.76 28.8747 177.102 28.96C177.187 29.0027 177.315 29.024 177.486 29.024C177.656 29.024 177.763 29.0667 177.806 29.152C177.891 29.1947 177.955 29.3013 177.998 29.472C178.04 29.6 178.083 29.7067 178.126 29.792C178.296 30.176 178.403 30.5813 178.446 31.008C178.531 31.392 178.638 31.776 178.766 32.16C178.979 32.7147 179.192 33.2907 179.406 33.888C179.619 34.4427 179.811 35.0187 179.982 35.616C180.195 36.5547 180.28 37.5573 180.238 38.624C180.195 39.648 180.131 40.6933 180.046 41.76ZM177.229 35.616C176.931 35.2747 176.611 34.9547 176.27 34.656C175.928 34.3573 175.566 34.08 175.182 33.824C174.542 33.2693 173.71 32.8213 172.686 32.48C171.704 32.096 170.702 31.776 169.678 31.52C168.654 31.264 167.822 31.0507 167.182 30.88C166.627 30.7947 166.072 30.7093 165.518 30.624C165.006 30.496 164.494 30.3467 163.982 30.176C163.768 30.0907 163.555 30.0053 163.342 29.92C163.128 29.8347 162.915 29.728 162.702 29.6C162.616 29.5147 162.467 29.408 162.253 29.28C162.083 29.152 161.955 29.024 161.87 28.896L161.934 28.384C161.934 28.2987 161.934 28.1707 161.934 28C161.934 27.8293 161.955 27.7227 161.998 27.68C162.04 27.5947 162.104 27.5307 162.19 27.488C162.275 27.4453 162.339 27.4027 162.382 27.36C162.595 27.1893 162.787 27.04 162.958 26.912C163.128 26.7413 163.32 26.592 163.534 26.464C164.259 25.9947 164.963 25.4613 165.646 24.864C166.371 24.2667 167.054 23.648 167.694 23.008C168.12 22.5813 168.483 22.1333 168.782 21.664C168.995 21.4507 169.102 21.3013 169.102 21.216C169.144 21.1307 169.144 21.0453 169.102 20.96C169.102 20.832 169.102 20.7467 169.102 20.704C169.102 20.6187 169.102 20.4907 169.102 20.32C169.144 20.1493 169.144 20.0213 169.102 19.936C169.059 19.8507 168.974 19.7653 168.846 19.68C168.76 19.5947 168.675 19.5307 168.59 19.488C168.206 19.1467 167.758 18.912 167.246 18.784C166.734 18.656 166.243 18.5493 165.774 18.464C165.304 18.2933 164.515 18.1867 163.406 18.144C162.339 18.1013 161.166 18.1227 159.885 18.208C158.606 18.2507 157.411 18.3787 156.302 18.592C155.235 18.7627 154.467 19.0187 153.998 19.36C153.528 19.7013 152.846 20.2773 151.95 21.088C151.096 21.856 150.2 22.7093 149.262 23.648C148.366 24.5867 147.576 25.4827 146.894 26.336C146.211 27.1893 145.806 27.8507 145.678 28.32C145.635 29.5573 145.806 30.816 146.19 32.096C146.36 32.5653 146.574 33.056 146.83 33.568C147.086 34.0373 147.363 34.464 147.661 34.848C148.387 35.744 149.262 36.4693 150.286 37.024C151.31 37.5787 152.291 38.0693 153.23 38.496C153.998 38.7947 154.766 39.0507 155.534 39.264C156.344 39.4347 157.155 39.6267 157.966 39.84C158.392 39.9253 158.798 40.0107 159.182 40.096C159.608 40.1813 160.014 40.3093 160.398 40.48C160.611 40.5227 160.803 40.5867 160.974 40.672C161.187 40.7573 161.379 40.8427 161.55 40.928C161.635 41.0133 161.72 41.1413 161.806 41.312C161.934 41.44 162.019 41.5467 162.062 41.632C162.104 41.6747 162.168 41.7387 162.253 41.824C162.339 41.9093 162.382 41.9733 162.382 42.016C162.382 42.0587 162.318 42.1653 162.19 42.336C162.062 42.464 161.934 42.6347 161.806 42.848C161.72 42.8907 161.571 42.912 161.358 42.912C161.144 42.8693 160.995 42.848 160.91 42.848C160.483 42.848 160.078 42.784 159.694 42.656C159.31 42.528 158.926 42.4213 158.542 42.336C157.603 41.9947 156.494 41.824 155.214 41.824C153.934 41.7813 152.803 41.76 151.822 41.76C151.182 41.76 150.542 41.76 149.902 41.76C149.262 41.7173 148.643 41.76 148.046 41.888C147.875 41.9307 147.64 41.9947 147.342 42.08C147.086 42.1227 146.872 42.1867 146.702 42.272C145.891 42.784 145.486 43.5093 145.486 44.448C145.486 44.576 145.528 44.768 145.614 45.024C145.699 45.3653 145.806 45.7067 145.934 46.048C146.104 46.3467 146.296 46.6453 146.51 46.944C147.32 47.8827 148.408 48.736 149.774 49.504C151.139 50.272 152.291 50.8693 153.23 51.296C153.699 51.6373 154.531 51.9147 155.726 52.128C156.92 52.3413 158.222 52.4693 159.63 52.512C161.038 52.5973 162.339 52.6187 163.534 52.576C164.728 52.576 165.56 52.512 166.03 52.384C166.67 52.2987 167.48 52.1707 168.462 52C169.443 51.8293 170.424 51.616 171.406 51.36C172.387 51.0613 173.198 50.72 173.838 50.336C174.691 49.9093 175.48 49.4187 176.206 48.864C176.931 48.2667 177.55 47.584 178.062 46.816C178.616 46.176 179.022 45.344 179.278 44.32C179.534 43.296 179.662 42.2933 179.662 41.312C179.662 40.288 179.512 39.456 179.214 38.816C179.043 38.2187 178.787 37.664 178.446 37.152C178.104 36.64 177.699 36.128 177.229 35.616ZM217.796 41.76C217.753 42.6987 217.646 43.808 217.476 45.088C217.305 46.368 216.9 47.4987 216.26 48.48C215.62 49.12 214.724 49.824 213.572 50.592C212.42 51.3173 211.268 51.9787 210.116 52.576C208.964 53.1733 208.068 53.6 207.428 53.856C207.044 54.1547 206.212 54.3467 204.932 54.432C203.694 54.56 202.222 54.6027 200.516 54.56C198.852 54.56 197.166 54.4747 195.46 54.304C193.753 54.1333 192.26 53.8987 190.98 53.6C189.742 53.344 188.932 53.024 188.548 52.64C187.609 52.2133 186.436 51.744 185.028 51.232C183.662 50.6773 182.489 49.9947 181.508 49.184C180.953 48.672 180.419 48.0747 179.907 47.392C179.395 46.6667 179.054 45.92 178.883 45.152C178.67 44.384 178.734 43.68 179.076 43.04C179.289 42.5707 179.63 42.144 180.099 41.76C180.526 41.3333 180.91 40.928 181.252 40.544C181.337 40.416 181.444 40.3093 181.572 40.224C181.7 40.096 181.806 39.9893 181.892 39.904C181.977 39.776 182.062 39.5413 182.148 39.2C182.233 39.1147 182.297 39.008 182.34 38.88C182.425 38.752 182.468 38.6453 182.468 38.56C182.51 38.4747 182.51 38.368 182.468 38.24C182.425 38.0693 182.382 37.9413 182.34 37.856C182.34 37.7707 182.34 37.664 182.34 37.536C182.34 37.408 182.297 37.3013 182.212 37.216C182.169 37.088 182.062 36.896 181.892 36.64C181.678 36.2987 181.444 35.9573 181.188 35.616C180.931 35.2747 180.697 34.9333 180.483 34.592C179.929 33.6107 179.523 32.5227 179.267 31.328C179.011 30.1333 178.969 29.0667 179.139 28.128C179.31 27.488 179.694 26.6987 180.291 25.76C180.846 24.7787 181.486 23.8187 182.212 22.88C182.98 21.9413 183.684 21.152 184.324 20.512C185.092 19.7867 185.86 19.0827 186.628 18.4C187.438 17.6747 188.313 17.0347 189.252 16.48C189.636 16.096 190.404 15.7547 191.556 15.456C192.75 15.1147 194.116 14.8373 195.652 14.624C197.23 14.4107 198.788 14.2613 200.324 14.176C201.86 14.0907 203.204 14.0907 204.356 14.176C205.55 14.2613 206.34 14.4533 206.724 14.752C207.705 15.0507 208.793 15.4773 209.988 16.032C211.182 16.544 212.249 17.184 213.188 17.952C213.657 18.336 214.084 18.7413 214.468 19.168C214.894 19.5947 215.257 20.064 215.556 20.576C215.854 21.216 216.046 21.8773 216.132 22.56C216.174 22.6453 216.217 22.7733 216.26 22.944C216.302 23.072 216.302 23.1787 216.26 23.264C216.217 23.3493 216.132 23.4347 216.004 23.52C215.918 23.6053 215.833 23.6907 215.748 23.776C215.705 23.8187 215.641 23.904 215.556 24.032C215.47 24.16 215.385 24.224 215.3 24.224C215.257 24.2667 215.214 24.2667 215.172 24.224C215.129 24.1387 215.065 24.0747 214.979 24.032C214.852 23.9467 214.724 23.8613 214.596 23.776C214.468 23.6907 214.361 23.6053 214.276 23.52C214.062 23.3493 213.849 23.1787 213.636 23.008C213.422 22.7947 213.209 22.6453 212.996 22.56C212.868 22.4747 212.718 22.432 212.548 22.432C212.377 22.3893 212.228 22.3467 212.1 22.304C211.844 22.2187 211.652 22.176 211.524 22.176C211.353 22.176 211.182 22.2187 211.012 22.304C210.713 22.3467 210.436 22.432 210.18 22.56C209.924 22.6453 209.668 22.752 209.412 22.88C208.729 23.3067 208.025 23.776 207.3 24.288C206.617 24.7573 205.977 25.248 205.38 25.76C204.868 26.144 204.462 26.5707 204.164 27.04C204.121 27.0827 204.057 27.168 203.972 27.296C203.886 27.3813 203.844 27.4453 203.844 27.488C203.844 27.6587 203.929 27.8293 204.1 28C204.142 28.0427 204.185 28.128 204.228 28.256C204.27 28.3413 204.313 28.4267 204.356 28.512C204.398 28.5547 204.484 28.576 204.612 28.576C204.74 28.576 204.825 28.5973 204.868 28.64C205.166 28.6827 205.444 28.7253 205.7 28.768C205.998 28.8107 206.297 28.8533 206.596 28.896C208.686 28.9813 210.756 28.9813 212.804 28.896C213.145 28.896 213.486 28.896 213.828 28.896C214.169 28.8533 214.51 28.8747 214.852 28.96C214.937 29.0027 215.065 29.024 215.236 29.024C215.406 29.024 215.513 29.0667 215.556 29.152C215.641 29.1947 215.705 29.3013 215.748 29.472C215.79 29.6 215.833 29.7067 215.876 29.792C216.046 30.176 216.153 30.5813 216.196 31.008C216.281 31.392 216.388 31.776 216.516 32.16C216.729 32.7147 216.942 33.2907 217.156 33.888C217.369 34.4427 217.561 35.0187 217.732 35.616C217.945 36.5547 218.03 37.5573 217.988 38.624C217.945 39.648 217.881 40.6933 217.796 41.76ZM214.979 35.616C214.681 35.2747 214.361 34.9547 214.02 34.656C213.678 34.3573 213.316 34.08 212.932 33.824C212.292 33.2693 211.46 32.8213 210.436 32.48C209.454 32.096 208.452 31.776 207.428 31.52C206.404 31.264 205.572 31.0507 204.932 30.88C204.377 30.7947 203.822 30.7093 203.268 30.624C202.756 30.496 202.244 30.3467 201.732 30.176C201.518 30.0907 201.305 30.0053 201.092 29.92C200.878 29.8347 200.665 29.728 200.452 29.6C200.366 29.5147 200.217 29.408 200.003 29.28C199.833 29.152 199.705 29.024 199.62 28.896L199.684 28.384C199.684 28.2987 199.684 28.1707 199.684 28C199.684 27.8293 199.705 27.7227 199.748 27.68C199.79 27.5947 199.854 27.5307 199.94 27.488C200.025 27.4453 200.089 27.4027 200.132 27.36C200.345 27.1893 200.537 27.04 200.708 26.912C200.878 26.7413 201.07 26.592 201.284 26.464C202.009 25.9947 202.713 25.4613 203.396 24.864C204.121 24.2667 204.804 23.648 205.444 23.008C205.87 22.5813 206.233 22.1333 206.532 21.664C206.745 21.4507 206.852 21.3013 206.852 21.216C206.894 21.1307 206.894 21.0453 206.852 20.96C206.852 20.832 206.852 20.7467 206.852 20.704C206.852 20.6187 206.852 20.4907 206.852 20.32C206.894 20.1493 206.894 20.0213 206.852 19.936C206.809 19.8507 206.724 19.7653 206.596 19.68C206.51 19.5947 206.425 19.5307 206.34 19.488C205.956 19.1467 205.508 18.912 204.996 18.784C204.484 18.656 203.993 18.5493 203.524 18.464C203.054 18.2933 202.265 18.1867 201.156 18.144C200.089 18.1013 198.916 18.1227 197.635 18.208C196.356 18.2507 195.161 18.3787 194.052 18.592C192.985 18.7627 192.217 19.0187 191.748 19.36C191.278 19.7013 190.596 20.2773 189.7 21.088C188.846 21.856 187.95 22.7093 187.012 23.648C186.116 24.5867 185.326 25.4827 184.644 26.336C183.961 27.1893 183.556 27.8507 183.428 28.32C183.385 29.5573 183.556 30.816 183.94 32.096C184.11 32.5653 184.324 33.056 184.58 33.568C184.836 34.0373 185.113 34.464 185.411 34.848C186.137 35.744 187.012 36.4693 188.036 37.024C189.06 37.5787 190.041 38.0693 190.98 38.496C191.748 38.7947 192.516 39.0507 193.284 39.264C194.094 39.4347 194.905 39.6267 195.716 39.84C196.142 39.9253 196.548 40.0107 196.932 40.096C197.358 40.1813 197.764 40.3093 198.148 40.48C198.361 40.5227 198.553 40.5867 198.724 40.672C198.937 40.7573 199.129 40.8427 199.3 40.928C199.385 41.0133 199.47 41.1413 199.556 41.312C199.684 41.44 199.769 41.5467 199.812 41.632C199.854 41.6747 199.918 41.7387 200.003 41.824C200.089 41.9093 200.132 41.9733 200.132 42.016C200.132 42.0587 200.068 42.1653 199.94 42.336C199.812 42.464 199.684 42.6347 199.556 42.848C199.47 42.8907 199.321 42.912 199.108 42.912C198.894 42.8693 198.745 42.848 198.66 42.848C198.233 42.848 197.828 42.784 197.444 42.656C197.06 42.528 196.676 42.4213 196.292 42.336C195.353 41.9947 194.244 41.824 192.964 41.824C191.684 41.7813 190.553 41.76 189.572 41.76C188.932 41.76 188.292 41.76 187.652 41.76C187.012 41.7173 186.393 41.76 185.796 41.888C185.625 41.9307 185.39 41.9947 185.092 42.08C184.836 42.1227 184.622 42.1867 184.452 42.272C183.641 42.784 183.236 43.5093 183.236 44.448C183.236 44.576 183.278 44.768 183.364 45.024C183.449 45.3653 183.556 45.7067 183.684 46.048C183.854 46.3467 184.046 46.6453 184.26 46.944C185.07 47.8827 186.158 48.736 187.524 49.504C188.889 50.272 190.041 50.8693 190.98 51.296C191.449 51.6373 192.281 51.9147 193.476 52.128C194.67 52.3413 195.972 52.4693 197.38 52.512C198.788 52.5973 200.089 52.6187 201.284 52.576C202.478 52.576 203.31 52.512 203.78 52.384C204.42 52.2987 205.23 52.1707 206.212 52C207.193 51.8293 208.174 51.616 209.156 51.36C210.137 51.0613 210.948 50.72 211.588 50.336C212.441 49.9093 213.23 49.4187 213.956 48.864C214.681 48.2667 215.3 47.584 215.812 46.816C216.366 46.176 216.772 45.344 217.028 44.32C217.284 43.296 217.412 42.2933 217.412 41.312C217.412 40.288 217.262 39.456 216.964 38.816C216.793 38.2187 216.537 37.664 216.196 37.152C215.854 36.64 215.449 36.128 214.979 35.616ZM255.616 49.632C255.573 49.8027 255.53 49.9947 255.488 50.208C255.445 50.3787 255.381 50.5707 255.296 50.784C254.997 51.5947 254.528 52.4053 253.888 53.216C253.248 54.0267 252.522 54.6027 251.712 54.944C250.901 55.2427 250.026 55.392 249.088 55.392C248.149 55.392 247.253 55.392 246.4 55.392C245.461 55.392 244.245 55.3493 242.752 55.264C241.301 55.2213 240.085 55.0933 239.104 54.88C238.165 54.6667 237.162 54.3893 236.096 54.048C235.072 53.7067 234.069 53.408 233.088 53.152C232.448 52.896 231.594 52.5333 230.528 52.064C229.504 51.5947 228.458 51.0827 227.392 50.528C226.325 49.9307 225.472 49.312 224.832 48.672C224.192 48.032 223.658 47.072 223.232 45.792C222.848 44.512 222.549 43.2533 222.336 42.016C222.165 40.736 222.058 39.776 222.016 39.136V35.744C221.973 35.4027 221.93 35.0613 221.888 34.72C221.888 34.336 221.845 33.9947 221.76 33.696C221.376 32.7147 220.778 32.0747 219.968 31.776C219.541 31.5627 219.093 31.4347 218.623 31.392C218.154 31.3493 217.706 31.2427 217.279 31.072C217.151 31.0293 217.023 30.9653 216.895 30.88C216.767 30.752 216.661 30.6667 216.576 30.624C216.533 30.5387 216.469 30.4747 216.383 30.432C216.298 30.3893 216.213 30.3467 216.127 30.304C215.914 30.0053 215.765 29.664 215.679 29.28C215.551 28.896 215.445 28.512 215.359 28.128C215.317 27.7013 215.295 27.2747 215.295 26.848C215.253 26.4213 215.231 25.9947 215.231 25.568C215.231 25.1413 215.253 24.7147 215.295 24.288C215.295 23.8613 215.338 23.4347 215.423 23.008C215.509 22.6667 215.615 22.3253 215.743 21.984C215.871 21.6 216.042 21.2587 216.255 20.96C216.383 20.832 216.554 20.6827 216.767 20.512C216.981 20.2987 217.173 20.1707 217.343 20.128C217.429 20.0853 217.535 20.064 217.663 20.064C217.791 20.064 217.919 20.0427 218.047 20C218.09 20 218.175 19.9787 218.303 19.936C218.431 19.8933 218.517 19.8933 218.559 19.936C218.645 19.9787 218.688 20.0213 218.688 20.064C218.73 20.1067 218.773 20.1493 218.816 20.192C218.901 20.32 219.008 20.448 219.136 20.576C219.264 20.704 219.349 20.832 219.392 20.96C219.434 21.0027 219.434 21.088 219.392 21.216C219.392 21.3013 219.392 21.3867 219.392 21.472C219.434 21.6853 219.456 21.92 219.456 22.176C219.456 22.3893 219.456 22.6027 219.456 22.816C219.413 23.84 219.413 24.864 219.456 25.888C219.456 26.1867 219.477 26.5067 219.52 26.848C219.562 27.1467 219.626 27.424 219.712 27.68C220.138 28.576 220.778 29.1947 221.632 29.536C222.058 29.7067 222.506 29.8133 222.976 29.856C223.445 29.856 223.893 29.9627 224.32 30.176C224.448 30.2187 224.554 30.304 224.64 30.432C224.768 30.5173 224.896 30.6027 225.024 30.688C225.237 30.7733 225.365 30.88 225.408 31.008C225.493 31.0933 225.557 31.2213 225.6 31.392C225.685 31.52 225.749 31.648 225.792 31.776C226.09 32.3733 226.218 33.056 226.176 33.824C226.176 34.592 226.176 35.3173 226.176 36C226.176 36.64 226.197 37.536 226.24 38.688C226.282 39.7973 226.389 40.928 226.56 42.08C226.773 43.232 227.093 44.128 227.52 44.768C227.904 45.664 228.394 46.4747 228.992 47.2C229.461 47.6693 230.357 48.1813 231.68 48.736C233.002 49.2907 234.453 49.824 236.032 50.336C237.61 50.8053 239.061 51.2107 240.384 51.552C241.706 51.8507 242.602 52 243.072 52H246.656C246.997 51.9573 247.36 51.936 247.744 51.936C248.17 51.8933 248.533 51.808 248.832 51.68C249.77 51.3813 250.41 50.784 250.752 49.888C250.837 49.8027 250.88 49.696 250.88 49.568C250.88 49.44 250.901 49.312 250.944 49.184C251.029 48.672 251.072 48.16 251.072 47.648C251.114 47.136 251.136 46.624 251.136 46.112C251.136 45.7707 251.136 45.4293 251.136 45.088C251.136 44.7467 251.114 44.4053 251.072 44.064C251.072 43.7227 251.05 43.3387 251.007 42.912C250.965 42.4853 250.837 42.1227 250.624 41.824C250.581 41.696 250.496 41.5893 250.368 41.504C250.24 41.376 250.133 41.2693 250.048 41.184C250.005 41.0987 249.941 41.0347 249.856 40.992C249.813 40.9067 249.749 40.8427 249.664 40.8C249.365 40.5867 249.002 40.4587 248.576 40.416C248.149 40.3307 247.765 40.2667 247.424 40.224C246.826 40.1387 246.208 40.1173 245.568 40.16C244.928 40.16 244.309 40.0747 243.712 39.904C243.584 39.8613 243.434 39.84 243.264 39.84C243.136 39.7973 243.008 39.7547 242.88 39.712C242.752 39.6267 242.624 39.52 242.496 39.392C242.368 39.264 242.24 39.1787 242.112 39.136C241.557 38.6667 241.216 38.0267 241.088 37.216C240.96 36.3627 240.874 35.5947 240.832 34.912C240.832 34.3573 240.832 33.8027 240.832 33.248C240.874 32.6507 241.024 32.1173 241.28 31.648C241.365 31.3493 241.472 31.1147 241.6 30.944C241.685 30.8587 241.77 30.7947 241.856 30.752C241.941 30.7093 242.005 30.6667 242.048 30.624C242.133 30.5387 242.24 30.4747 242.368 30.432C242.496 30.3467 242.602 30.2827 242.688 30.24C242.816 30.1547 242.944 30.112 243.072 30.112C243.242 30.112 243.392 30.0907 243.52 30.048C244.245 29.92 245.013 29.8773 245.824 29.92C246.634 29.9627 247.402 29.856 248.128 29.6C249.066 29.3013 249.749 28.704 250.176 27.808C250.261 27.68 250.304 27.552 250.304 27.424C250.304 27.2533 250.325 27.104 250.368 26.976C250.538 26.336 250.624 25.696 250.624 25.056C250.624 24.3733 250.602 23.712 250.56 23.072C250.517 22.5173 250.432 21.9627 250.304 21.408C250.176 20.8533 249.92 20.3627 249.536 19.936C249.408 19.808 249.258 19.7013 249.088 19.616L248.448 19.168C248.362 19.1253 248.256 19.104 248.128 19.104C248 19.0613 247.893 19.0187 247.808 18.976C247.168 18.8053 246.506 18.72 245.824 18.72C245.184 18.72 244.544 18.656 243.904 18.528C243.605 18.4427 243.264 18.3573 242.88 18.272C242.496 18.144 242.176 17.9733 241.92 17.76C241.877 17.6747 241.834 17.5893 241.792 17.504C241.749 17.4187 241.685 17.3333 241.6 17.248C241.557 17.1627 241.493 17.0773 241.408 16.992C241.322 16.864 241.258 16.7573 241.216 16.672C241.088 16.3733 241.002 16.032 240.96 15.648C240.917 15.264 240.896 14.9227 240.896 14.624C240.853 13.7707 240.832 12.896 240.832 12C240.874 11.0613 240.768 10.1867 240.512 9.376C240.426 9.03467 240.298 8.71466 240.128 8.416C240 8.07467 239.808 7.79733 239.552 7.584C239.466 7.49866 239.338 7.43466 239.168 7.392C239.04 7.30666 238.933 7.24266 238.848 7.2C238.208 6.816 237.504 6.624 236.736 6.624C235.968 6.58133 235.221 6.56 234.496 6.56C234.197 6.56 233.877 6.56 233.536 6.56C233.237 6.56 232.938 6.51733 232.64 6.432C232.554 6.432 232.469 6.432 232.384 6.432C232.298 6.38933 232.149 6.34666 231.936 6.304C231.978 6.26133 232.042 6.24 232.128 6.24H232.704C233.088 6.19733 233.45 6.176 233.792 6.176C234.176 6.176 234.56 6.176 234.944 6.176H240.896C241.365 6.176 241.813 6.21866 242.24 6.304C242.709 6.34666 243.157 6.47466 243.584 6.688C243.712 6.73067 243.84 6.77333 243.968 6.816C244.096 6.85866 244.202 6.92266 244.288 7.008C244.586 7.22133 244.8 7.49866 244.928 7.84C245.098 8.18133 245.226 8.52266 245.312 8.864C245.44 9.29066 245.504 9.71733 245.504 10.144C245.546 10.528 245.568 10.9333 245.568 11.36V14.432C245.61 14.8587 245.653 15.264 245.696 15.648C245.781 16.032 245.909 16.3947 246.08 16.736C246.122 16.8213 246.165 16.928 246.208 17.056C246.25 17.184 246.314 17.2907 246.4 17.376C246.442 17.4187 246.506 17.4613 246.592 17.504C246.72 17.5467 246.805 17.5893 246.848 17.632C246.976 17.6747 247.104 17.76 247.232 17.888C247.36 17.9733 247.488 18.0373 247.616 18.08C247.786 18.1227 247.957 18.1653 248.128 18.208C248.298 18.208 248.469 18.2293 248.64 18.272C249.493 18.4 250.346 18.4427 251.2 18.4C252.053 18.3573 252.863 18.5707 253.632 19.04C253.888 19.1253 254.08 19.232 254.208 19.36C254.293 19.4027 254.357 19.5093 254.4 19.68C254.485 19.808 254.549 19.9147 254.592 20L255.04 20.576C255.082 20.704 255.104 20.832 255.104 20.96C255.104 21.088 255.125 21.1947 255.168 21.28C255.253 21.7067 255.296 22.1547 255.296 22.624C255.338 23.0933 255.36 23.5627 255.36 24.032C255.36 24.5867 255.338 25.1627 255.296 25.76C255.296 26.3147 255.232 26.8907 255.104 27.488C254.933 28.3413 254.592 29.1947 254.08 30.048C253.61 30.8587 253.013 31.52 252.288 32.032C252.117 32.2027 251.925 32.352 251.712 32.48C251.498 32.608 251.285 32.7147 251.072 32.8C250.517 33.0133 249.941 33.1627 249.344 33.248C248.789 33.3333 248.234 33.4827 247.68 33.696C247.594 33.7387 247.488 33.7813 247.36 33.824C247.232 33.824 247.125 33.8667 247.04 33.952C246.954 33.9947 246.869 34.08 246.784 34.208C246.741 34.2933 246.677 34.3787 246.592 34.464L246.08 34.976C246.037 35.0613 246.016 35.168 246.016 35.296C246.016 35.3813 246.016 35.4667 246.016 35.552C245.973 35.68 245.93 35.808 245.888 35.936C245.845 36.064 245.824 36.192 245.824 36.32C245.824 36.9173 246.058 37.4933 246.528 38.048C246.613 38.176 246.698 38.3253 246.784 38.496C246.869 38.624 246.976 38.7307 247.104 38.816C247.189 38.8587 247.296 38.9013 247.424 38.944C247.552 38.9867 247.658 39.0507 247.744 39.136C248.341 39.4347 248.96 39.6053 249.6 39.648C250.282 39.6907 250.944 39.7333 251.583 39.776C251.968 39.8187 252.352 39.8613 252.736 39.904C253.162 39.9467 253.525 40.0533 253.824 40.224C253.909 40.2667 253.994 40.3093 254.08 40.352C254.165 40.3947 254.229 40.4373 254.272 40.48C254.357 40.5227 254.464 40.608 254.592 40.736C254.762 40.8213 254.89 40.9067 254.976 40.992C255.104 41.2053 255.21 41.4187 255.296 41.632C255.637 42.2293 255.808 42.8907 255.808 43.616C255.85 44.3413 255.872 45.024 255.872 45.664V47.072C255.872 47.456 255.85 47.8613 255.808 48.288C255.765 48.7147 255.701 49.1627 255.616 49.632ZM222.08 12.384C222.165 11.6587 222.314 10.912 222.528 10.144C222.741 9.376 223.189 8.77866 223.872 8.352C223.957 8.30933 224.064 8.24533 224.192 8.16C224.362 8.032 224.512 7.94667 224.64 7.904C224.725 7.904 224.853 7.968 225.024 8.096C225.237 8.18133 225.386 8.24533 225.472 8.288C225.557 8.33066 225.621 8.352 225.664 8.352C225.706 8.352 225.749 8.37333 225.792 8.416C225.877 8.58666 225.92 8.75733 225.92 8.928C226.005 9.184 226.069 9.41866 226.112 9.632C226.154 9.84533 226.176 10.08 226.176 10.336C226.176 11.1467 226.176 11.9787 226.176 12.832C226.218 13.6427 226.197 14.4747 226.112 15.328C226.069 15.4987 226.026 15.7333 225.984 16.032C225.984 16.288 225.941 16.5227 225.856 16.736L225.408 17.312C225.365 17.3547 225.301 17.44 225.216 17.568C225.173 17.696 225.109 17.8027 225.024 17.888C224.981 17.9307 224.874 17.9733 224.704 18.016C224.533 18.016 224.405 18.0373 224.32 18.08C224.277 18.1227 224.192 18.1653 224.064 18.208C223.978 18.2507 223.893 18.272 223.808 18.272C223.722 18.272 223.616 18.2293 223.488 18.144C223.402 18.0587 223.317 17.9947 223.232 17.952C223.146 17.9093 223.04 17.8667 222.911 17.824C222.784 17.7387 222.677 17.6747 222.592 17.632C222.506 17.5467 222.442 17.3973 222.4 17.184C222.357 16.9707 222.314 16.7787 222.272 16.608C222.186 16.3947 222.122 16.1813 222.08 15.968C222.08 15.7547 222.08 15.52 222.08 15.264C222.037 14.4107 222.037 13.4507 222.08 12.384ZM295.502 24.032V41.248C295.502 41.888 295.481 42.7413 295.438 43.808C295.438 44.832 295.31 45.8773 295.054 46.944C294.841 47.968 294.414 48.8 293.774 49.44C293.177 50.1653 292.409 50.6347 291.47 50.848C290.915 50.976 290.318 50.9973 289.678 50.912C289.081 50.784 288.483 50.6773 287.886 50.592C287.118 50.464 286.35 50.336 285.582 50.208C284.814 50.0373 284.025 49.888 283.214 49.76C282.787 49.6747 282.318 49.5893 281.806 49.504C281.337 49.4187 280.867 49.2907 280.398 49.12L279.822 48.8C279.694 48.8 279.63 48.7787 279.63 48.736C279.673 48.6933 279.694 48.6933 279.694 48.736C279.737 48.736 279.779 48.7147 279.822 48.672C279.907 48.6293 279.993 48.608 280.078 48.608C280.163 48.5653 280.249 48.544 280.334 48.544C280.803 48.3733 281.251 48.288 281.678 48.288C282.105 48.2453 282.553 48.224 283.022 48.224C284.003 48.224 285.134 48.2453 286.414 48.288C287.737 48.3307 288.867 48.3093 289.806 48.224C290.361 48.1813 290.894 48.0533 291.406 47.84C291.961 47.6267 292.366 47.264 292.622 46.752C292.707 46.5813 292.75 46.4107 292.75 46.24C292.835 45.9413 292.899 45.664 292.942 45.408C292.985 45.152 293.006 44.8747 293.006 44.576V25.12C293.006 24.3093 293.006 23.4773 293.006 22.624C293.006 21.728 292.793 20.9387 292.366 20.256C292.323 20.1707 292.259 20.064 292.174 19.936C292.131 19.808 292.067 19.7227 291.982 19.68C291.897 19.5947 291.769 19.5307 291.598 19.488C291.47 19.4027 291.363 19.3173 291.278 19.232L290.83 18.976C290.361 18.8053 289.827 18.72 289.23 18.72C288.675 18.72 288.142 18.72 287.63 18.72C286.691 18.72 285.561 18.6987 284.238 18.656C282.915 18.6133 281.763 18.6773 280.782 18.848C280.483 18.8907 280.206 18.9547 279.95 19.04C279.694 19.1253 279.395 19.232 279.054 19.36C279.011 19.4027 278.947 19.4453 278.862 19.488C278.777 19.488 278.691 19.5307 278.606 19.616C278.435 19.7013 278.265 19.872 278.094 20.128C277.966 20.384 277.859 20.5973 277.774 20.768C277.731 20.8533 277.689 20.96 277.646 21.088C277.646 21.216 277.625 21.344 277.582 21.472C277.497 21.984 277.433 22.496 277.39 23.008C277.39 23.52 277.39 24.032 277.39 24.544V31.328C277.39 32.1387 277.39 32.9707 277.39 33.824C277.433 34.6347 277.411 35.4453 277.326 36.256C277.283 36.64 277.241 37.0453 277.198 37.472C277.198 37.8987 277.091 38.2827 276.878 38.624C276.793 38.7947 276.686 38.9867 276.558 39.2C276.473 39.3707 276.366 39.5413 276.238 39.712C276.195 39.7973 276.089 39.8827 275.918 39.968C275.79 40.0107 275.662 40.0747 275.534 40.16C275.363 40.3307 275.235 40.4373 275.15 40.48C275.022 40.5227 274.873 40.544 274.702 40.544C274.531 40.5013 274.361 40.5013 274.19 40.544C274.147 40.544 274.062 40.5653 273.934 40.608C273.849 40.608 273.763 40.5867 273.678 40.544C273.55 40.5013 273.422 40.4587 273.294 40.416C273.209 40.3307 273.123 40.2667 273.038 40.224C272.953 40.1387 272.846 40.0747 272.718 40.032C272.59 39.9467 272.483 39.8827 272.398 39.84C272.313 39.7547 272.227 39.6693 272.142 39.584C272.099 39.456 272.035 39.3493 271.95 39.264C271.523 38.6667 271.267 38.0053 271.182 37.28C271.097 36.512 271.033 35.7653 270.99 35.04C270.99 34.5707 270.99 33.8667 270.99 32.928C270.99 31.9467 270.99 30.9227 270.99 29.856C270.99 28.7467 270.99 27.7227 270.99 26.784C270.99 25.8453 270.99 25.1413 270.99 24.672C270.99 23.9467 270.947 23.2213 270.862 22.496C270.819 21.7707 270.606 21.088 270.222 20.448C270.179 20.3627 270.115 20.256 270.03 20.128C269.987 20 269.923 19.9147 269.838 19.872C269.795 19.7867 269.731 19.7227 269.646 19.68C269.603 19.6373 269.539 19.5947 269.454 19.552C269.326 19.4667 269.198 19.3813 269.07 19.296C268.942 19.2107 268.814 19.1467 268.686 19.104C268.387 18.976 268.067 18.8907 267.726 18.848C267.385 18.8053 267.043 18.784 266.702 18.784C266.019 18.7413 265.315 18.72 264.59 18.72C263.907 18.72 263.203 18.72 262.478 18.72C261.923 18.72 261.369 18.72 260.814 18.72C260.302 18.6773 259.79 18.6987 259.278 18.784C258.723 18.784 258.254 18.848 257.87 18.976C257.699 19.0187 257.55 19.0827 257.422 19.168C257.294 19.2533 257.166 19.3387 257.038 19.424C256.995 19.4667 256.931 19.5093 256.846 19.552C256.761 19.552 256.675 19.5947 256.59 19.68C256.505 19.7227 256.419 19.808 256.334 19.936C256.291 20.0213 256.227 20.1067 256.142 20.192C256.099 20.2773 256.035 20.384 255.95 20.512C255.865 20.5973 255.801 20.6827 255.758 20.768C255.587 21.0667 255.481 21.4293 255.438 21.856C255.395 22.24 255.374 22.6027 255.374 22.944C255.289 23.8827 255.246 25.0773 255.246 26.528C255.289 27.936 255.31 29.1307 255.31 30.112V33.888C255.31 34.1013 255.289 34.336 255.246 34.592C255.246 34.8053 255.246 35.0187 255.246 35.232C255.246 35.2747 255.246 35.36 255.246 35.488C255.246 35.616 255.225 35.6587 255.182 35.616C255.139 35.5733 255.118 35.488 255.118 35.36C255.075 35.104 255.054 34.848 255.054 34.592C255.054 34.2933 255.054 34.016 255.054 33.76V21.664C255.054 21.1093 255.054 20.576 255.054 20.064C255.054 19.5093 255.118 18.9547 255.246 18.4L255.438 17.568C255.523 17.4827 255.609 17.3973 255.694 17.312C255.779 17.184 255.843 17.056 255.886 16.928C255.971 16.7573 256.078 16.608 256.206 16.48C256.334 16.352 256.526 16.2453 256.782 16.16C257.251 15.8613 257.742 15.6907 258.254 15.648C258.809 15.5627 259.363 15.4987 259.918 15.456C260.899 15.3707 262.094 15.3493 263.502 15.392C264.953 15.4347 266.147 15.456 267.086 15.456C267.598 15.456 268.11 15.4773 268.622 15.52C269.134 15.52 269.646 15.5627 270.158 15.648C270.286 15.648 270.414 15.648 270.542 15.648C270.713 15.648 270.862 15.6907 270.99 15.776C271.929 16.0747 272.611 16.672 273.038 17.568C273.209 17.9093 273.315 18.2933 273.358 18.72C273.401 19.1467 273.422 19.552 273.422 19.936C273.507 20.576 273.529 21.2373 273.486 21.92C273.486 22.56 273.486 23.2 273.486 23.84V31.136C273.486 31.6907 273.486 32.2453 273.486 32.8C273.529 33.3547 273.614 33.888 273.742 34.4C273.785 34.8693 273.955 35.296 274.254 35.68C274.339 35.7227 274.425 35.8293 274.51 36C274.595 36.1707 274.681 36.2773 274.766 36.32C274.851 36.3627 274.958 36.3413 275.086 36.256C275.214 36.256 275.363 36.2773 275.534 36.32C275.747 36.32 275.897 36.2987 275.982 36.256C276.067 36.1707 276.153 36.064 276.238 35.936C276.323 35.7653 276.387 35.6587 276.43 35.616C276.771 35.1467 276.963 34.6133 277.006 34.016C277.091 33.4187 277.134 32.8427 277.134 32.288C277.134 31.8187 277.134 31.072 277.134 30.048C277.134 29.024 277.134 27.936 277.134 26.784C277.134 25.5893 277.134 24.48 277.134 23.456C277.134 22.432 277.134 21.6853 277.134 21.216C277.177 20.4053 277.241 19.552 277.326 18.656C277.454 17.76 277.859 17.0347 278.542 16.48C279.097 16.0107 279.758 15.7333 280.526 15.648C281.337 15.52 282.083 15.456 282.766 15.456H287.566C288.163 15.456 288.739 15.456 289.294 15.456C289.891 15.456 290.467 15.4773 291.022 15.52C291.406 15.5627 291.811 15.6053 292.238 15.648C292.665 15.6907 293.049 15.8187 293.39 16.032C293.518 16.0747 293.71 16.224 293.966 16.48C294.051 16.5227 294.158 16.5867 294.286 16.672C294.414 16.7147 294.499 16.7787 294.542 16.864C294.755 17.1627 294.926 17.504 295.054 17.888C295.182 18.2293 295.267 18.5707 295.31 18.912C295.481 19.7227 295.545 20.5547 295.502 21.408C295.502 22.2613 295.502 23.136 295.502 24.032ZM339.011 41.824C339.011 42.7627 339.011 43.7653 339.011 44.832C339.054 45.856 339.054 46.8587 339.011 47.84C338.968 48.3947 338.883 48.992 338.755 49.632C338.67 50.2293 338.435 50.7627 338.051 51.232C337.752 51.616 337.368 51.9147 336.899 52.128C336.43 52.384 335.982 52.6187 335.555 52.832C335 53.1733 334.424 53.5147 333.827 53.856C333.272 54.1973 332.654 54.4533 331.971 54.624C331.246 54.7947 330.478 54.88 329.667 54.88C328.899 54.88 328.131 54.88 327.363 54.88C326.552 54.88 325.72 54.88 324.867 54.88C324.056 54.9227 323.246 54.88 322.435 54.752C321.752 54.624 321.091 54.3893 320.451 54.048C319.811 53.7493 319.15 53.6213 318.467 53.664C318.296 53.664 318.126 53.6853 317.955 53.728C317.827 53.7707 317.699 53.8133 317.571 53.856C317.016 53.984 316.462 54.1547 315.907 54.368C315.395 54.624 314.862 54.816 314.307 54.944C312.43 55.456 310.51 55.584 308.547 55.328C307.864 55.2427 307.182 55.1147 306.499 54.944C305.816 54.7733 305.155 54.56 304.515 54.304C304.046 54.0907 303.555 53.856 303.043 53.6C302.574 53.344 302.147 53.0667 301.763 52.768C301.208 52.3413 300.675 51.8933 300.163 51.424C299.694 50.9547 299.267 50.4427 298.883 49.888C298.414 49.4187 297.987 48.608 297.603 47.456C297.262 46.304 296.963 45.0453 296.707 43.68C296.494 42.272 296.323 40.992 296.195 39.84C296.067 38.688 295.96 37.8773 295.875 37.408C295.704 35.5307 295.576 33.6747 295.491 31.84C295.491 31.3707 295.619 30.4747 295.875 29.152C296.088 27.7867 296.408 26.3147 296.835 24.736C297.262 23.1573 297.731 21.7067 298.243 20.384C298.755 19.0187 299.246 18.1013 299.715 17.632C300.398 16.992 301.059 16.48 301.699 16.096C302.126 15.84 302.531 15.6053 302.915 15.392C303.342 15.1787 303.768 15.008 304.195 14.88C304.792 14.6667 305.411 14.496 306.051 14.368C306.691 14.1973 307.352 14.0907 308.035 14.048C308.974 13.9627 309.87 14.0053 310.723 14.176C311.619 14.304 312.515 14.4747 313.411 14.688C313.795 14.816 314.158 14.944 314.499 15.072C314.84 15.1573 315.224 15.2427 315.651 15.328C315.736 15.328 315.843 15.3493 315.971 15.392C316.142 15.4347 316.27 15.4347 316.355 15.392C316.44 15.392 316.504 15.3493 316.547 15.264C316.632 15.1787 316.696 15.1147 316.739 15.072C316.824 14.9867 316.931 14.9013 317.059 14.816C317.187 14.7307 317.272 14.6453 317.315 14.56C317.4 14.4747 317.443 14.368 317.443 14.24C317.443 14.112 317.443 14.0053 317.443 13.92C317.571 13.3227 317.635 12.768 317.635 12.256C317.678 11.36 317.678 10.4853 317.635 9.632C317.635 8.736 317.635 7.84 317.635 6.944C317.678 6.47466 317.72 6.048 317.763 5.664C317.848 5.23733 317.976 4.832 318.147 4.448C318.19 4.36266 318.232 4.256 318.275 4.128C318.318 4 318.36 3.89333 318.403 3.808C318.488 3.72266 318.574 3.63733 318.659 3.552C318.787 3.46666 318.872 3.40266 318.915 3.36C319 3.27466 319.086 3.18933 319.171 3.104C319.256 3.01866 319.342 2.95466 319.427 2.912C319.555 2.82666 319.683 2.784 319.811 2.784C319.982 2.74133 320.131 2.69866 320.259 2.656C320.856 2.48533 321.496 2.4 322.179 2.4C322.862 2.4 323.523 2.4 324.163 2.4H328.259C328.814 2.44266 329.368 2.50666 329.923 2.592C330.52 2.63467 331.075 2.80533 331.587 3.104C332.184 3.40266 332.696 3.82933 333.123 4.384C333.592 4.93867 334.104 5.42933 334.659 5.856C335.214 6.28267 335.811 6.64533 336.451 6.944C337.134 7.24266 337.688 7.69066 338.115 8.288C338.456 8.75733 338.67 9.29066 338.755 9.888C338.883 10.4427 338.947 11.0187 338.947 11.616C339.032 12.5547 339.054 13.5147 339.011 14.496C339.011 15.4347 339.011 16.416 339.011 17.44V41.824ZM335.299 47.328C335.342 46.3467 335.342 45.1947 335.299 43.872C335.299 42.5493 335.299 41.4187 335.299 40.48V11.808C335.299 11.3387 335.278 10.8907 335.235 10.464C335.235 9.99466 335.171 9.54667 335.043 9.12C335.043 8.94933 335 8.736 334.915 8.48C334.403 7.49867 333.55 6.944 332.355 6.816C331.16 6.64533 330.072 6.56 329.091 6.56H327.427C326.659 6.56 325.87 6.56 325.059 6.56C324.291 6.51733 323.544 6.58133 322.819 6.752C322.52 6.79467 322.2 6.90133 321.859 7.072C321.518 7.2 321.24 7.37066 321.027 7.584C320.984 7.62667 320.942 7.712 320.899 7.84C320.856 7.92533 320.814 8.01066 320.771 8.096C320.686 8.224 320.6 8.352 320.515 8.48C320.43 8.608 320.366 8.736 320.323 8.864C320.28 9.03467 320.238 9.20533 320.195 9.376C320.195 9.54666 320.174 9.71733 320.131 9.888C320.088 10.272 320.046 10.656 320.003 11.04C320.003 11.424 320.003 11.8293 320.003 12.256V15.968C320.003 16.2667 319.982 16.5653 319.939 16.864C319.939 17.12 319.918 17.3973 319.875 17.696C319.875 17.7813 319.875 17.888 319.875 18.016C319.875 18.144 319.832 18.2507 319.747 18.336C319.704 18.4213 319.64 18.5067 319.555 18.592C319.47 18.6773 319.384 18.7627 319.299 18.848C319.256 18.8907 319.171 18.976 319.043 19.104C318.958 19.232 318.872 19.3173 318.787 19.36C318.744 19.4027 318.659 19.424 318.531 19.424C318.446 19.3813 318.36 19.36 318.275 19.36C317.763 19.36 317.251 19.296 316.739 19.168C316.184 18.9547 315.587 18.7627 314.947 18.592C314.35 18.4213 313.752 18.3147 313.155 18.272C312.216 18.1867 311.278 18.1867 310.339 18.272C309.4 18.3147 308.483 18.464 307.587 18.72C306.947 19.0187 306.115 19.5307 305.091 20.256C304.11 20.9813 303.128 21.7707 302.147 22.624C301.208 23.4773 300.483 24.224 299.971 24.864C299.544 25.3333 299.182 26.0373 298.883 26.976C298.627 27.9147 298.414 28.9387 298.243 30.048C298.115 31.1147 298.03 32.1387 297.987 33.12C297.944 34.0587 297.923 34.7627 297.923 35.232C297.923 35.7013 298.008 36.5547 298.179 37.792C298.35 38.9867 298.584 40.3093 298.883 41.76C299.224 43.168 299.608 44.4907 300.035 45.728C300.462 46.9227 300.91 47.7547 301.379 48.224C301.806 48.736 302.254 49.184 302.723 49.568C303.192 49.952 303.704 50.3147 304.259 50.656C305.198 51.2533 306.179 51.68 307.203 51.936C307.928 52.1493 308.654 52.2987 309.379 52.384C310.104 52.4693 310.83 52.512 311.555 52.512C312.28 52.512 313.027 52.448 313.795 52.32C314.563 52.2347 315.288 52.0853 315.971 51.872C316.568 51.6587 317.123 51.424 317.635 51.168C318.19 50.912 318.744 50.7413 319.299 50.656C319.64 50.5707 319.875 50.528 320.003 50.528C320.088 50.528 320.195 50.5493 320.323 50.592C320.451 50.6347 320.558 50.6773 320.643 50.72C321.07 50.848 321.454 50.9973 321.795 51.168C322.179 51.3387 322.563 51.488 322.947 51.616C323.672 51.7867 324.419 51.8933 325.187 51.936C325.955 51.9787 326.723 52 327.491 52C328.131 52 328.771 52 329.411 52C330.051 52 330.67 51.9787 331.267 51.936C331.608 51.936 331.971 51.9147 332.355 51.872C332.782 51.8293 333.144 51.7227 333.443 51.552C333.571 51.4667 333.699 51.3813 333.827 51.296C333.955 51.168 334.062 51.0613 334.147 50.976L334.595 50.592C334.68 50.5067 334.723 50.4213 334.723 50.336C334.766 50.208 334.808 50.1013 334.851 50.016C335.022 49.5467 335.128 49.0987 335.171 48.672C335.214 48.2027 335.256 47.7547 335.299 47.328ZM320.067 34.72C320.067 35.488 320.046 36.2987 320.003 37.152C320.003 37.9627 319.79 38.7307 319.363 39.456C319.32 39.5413 319.256 39.6693 319.171 39.84C319.128 40.0107 319.064 40.1387 318.979 40.224C318.936 40.2667 318.851 40.3307 318.723 40.416C318.595 40.4587 318.488 40.5013 318.403 40.544C318.318 40.5867 318.211 40.6507 318.083 40.736C317.998 40.8213 317.891 40.8853 317.763 40.928C317.678 40.9707 317.571 40.992 317.443 40.992C317.315 40.9493 317.208 40.9493 317.123 40.992C316.995 40.992 316.867 41.0133 316.739 41.056C316.611 41.056 316.504 41.056 316.419 41.056C315.523 40.928 314.798 40.4373 314.243 39.584C314.158 39.456 314.072 39.2213 313.987 38.88C313.816 38.3253 313.688 37.7707 313.603 37.216C313.56 36.6187 313.539 36.0427 313.539 35.488C313.539 34.7627 313.582 33.9733 313.667 33.12C313.752 32.224 314.03 31.4773 314.499 30.88C314.584 30.7947 314.67 30.688 314.755 30.56C314.84 30.3893 314.926 30.2613 315.011 30.176L315.715 29.984C316.056 29.8133 316.291 29.728 316.419 29.728C317.059 29.6 317.72 29.728 318.403 30.112C318.488 30.1547 318.595 30.1973 318.723 30.24C318.851 30.2827 318.936 30.3467 318.979 30.432C319.107 30.56 319.235 30.752 319.363 31.008C319.534 31.2213 319.64 31.4133 319.683 31.584C319.896 32.0107 320.003 32.5013 320.003 33.056C320.046 33.6107 320.067 34.1653 320.067 34.72ZM357.964 27.936V46.368C357.964 47.1787 357.985 48.032 358.028 48.928C358.07 49.824 357.985 50.6773 357.772 51.488C357.686 51.8293 357.558 52.192 357.388 52.576C357.26 52.96 357.046 53.28 356.748 53.536C356.492 53.792 356.172 53.984 355.788 54.112C355.404 54.24 355.041 54.3467 354.7 54.432C353.974 54.6027 353.206 54.6667 352.396 54.624C351.628 54.624 350.881 54.624 350.156 54.624C349.516 54.624 348.684 54.624 347.66 54.624C346.636 54.6667 345.59 54.624 344.524 54.496C343.5 54.368 342.668 54.0907 342.028 53.664C341.644 53.408 341.281 53.1093 340.94 52.768C340.598 52.4693 340.321 52.1067 340.108 51.68C339.98 51.3387 339.873 51.0187 339.788 50.72C339.745 50.3787 339.66 50.0587 339.532 49.76C339.318 49.2053 339.062 48.6507 338.764 48.096C338.465 47.5413 338.252 46.9653 338.123 46.368C338.038 45.9413 337.995 45.4933 337.995 45.024C337.953 44.5547 337.931 44.1067 337.931 43.68C337.931 43.296 337.931 42.5493 337.931 41.44C337.931 40.288 337.931 38.9653 337.931 37.472C337.931 35.9787 337.931 34.4853 337.931 32.992C337.931 31.4987 337.931 30.1973 337.931 29.088C337.931 27.936 337.931 27.168 337.931 26.784V21.152C337.931 20.5547 337.931 19.9787 337.931 19.424C337.931 18.8267 337.953 18.2507 337.995 17.696C338.081 17.4827 338.145 17.2693 338.188 17.056C338.273 16.8 338.337 16.5867 338.38 16.416C338.465 16.2027 338.593 16.0107 338.764 15.84C338.934 15.6267 339.062 15.4347 339.148 15.264L339.532 14.496C339.574 14.4107 339.617 14.3253 339.66 14.24C339.702 14.1547 339.745 14.0907 339.788 14.048C339.788 13.8773 339.745 13.6213 339.66 13.28C339.66 12.9387 339.638 12.704 339.596 12.576C339.51 12.1067 339.34 11.6587 339.084 11.232C338.87 10.8053 338.7 10.3787 338.572 9.952C338.401 9.39733 338.294 8.82133 338.252 8.224C338.252 7.62667 338.252 7.05067 338.252 6.496C338.252 6.06933 338.252 5.664 338.252 5.28C338.252 4.896 338.273 4.512 338.316 4.128C338.358 3.78666 338.401 3.46666 338.444 3.168C338.486 2.86933 338.572 2.57066 338.7 2.272C338.742 2.18666 338.764 2.10133 338.764 2.016C338.806 1.93066 338.849 1.86666 338.892 1.824C338.977 1.73867 339.062 1.65333 339.148 1.568C339.276 1.48266 339.361 1.39733 339.404 1.312C339.489 1.22666 339.574 1.14133 339.66 1.056C339.788 0.970664 339.894 0.906665 339.98 0.863998C340.065 0.778664 340.172 0.735996 340.299 0.735996C340.428 0.735996 340.556 0.714663 340.684 0.671997C341.238 0.50133 341.793 0.415997 342.348 0.415997C342.945 0.37333 343.521 0.351997 344.076 0.351997H347.276C348.257 0.351997 349.281 0.437331 350.348 0.607998C351.457 0.735999 352.438 1.09867 353.292 1.696C353.676 1.99466 354.017 2.336 354.316 2.72C354.614 3.06133 354.892 3.424 355.148 3.808C355.532 4.36267 355.937 4.93867 356.364 5.536C356.79 6.13333 357.11 6.77333 357.324 7.456C357.494 8.01066 357.58 8.58666 357.58 9.184C357.622 9.78133 357.644 10.3787 357.644 10.976C357.644 11.488 357.644 12.0213 357.644 12.576C357.644 13.1307 357.601 13.664 357.516 14.176C357.43 14.7307 357.281 15.264 357.068 15.776C356.854 16.288 356.662 16.8 356.492 17.312C356.449 17.44 356.385 17.5893 356.3 17.76C356.257 17.888 356.236 18.016 356.236 18.144C356.193 18.8693 356.342 19.552 356.684 20.192C357.068 20.7893 357.366 21.408 357.58 22.048C357.878 22.944 358.006 23.904 357.964 24.928C357.964 25.9093 357.964 26.912 357.964 27.936ZM350.86 4C349.921 4 348.961 4 347.98 4C347.041 3.95733 346.124 3.97866 345.228 4.064C344.844 4.10667 344.438 4.17066 344.012 4.256C343.585 4.34133 343.201 4.49067 342.86 4.704C342.774 4.74666 342.689 4.832 342.604 4.96C342.518 5.04533 342.433 5.13066 342.348 5.216L341.9 5.792C341.857 5.87733 341.814 6.00533 341.772 6.176C341.729 6.34667 341.686 6.496 341.644 6.624C341.473 7.136 341.388 7.69066 341.388 8.288C341.388 8.84267 341.388 9.41867 341.388 10.016C341.388 10.3147 341.388 10.6133 341.388 10.912C341.43 11.168 341.473 11.424 341.516 11.68C341.601 12.0213 341.686 12.384 341.772 12.768C341.857 13.152 342.006 13.4933 342.22 13.792L342.668 14.176C342.753 14.2187 342.838 14.304 342.924 14.432C343.052 14.5173 343.18 14.6027 343.308 14.688C343.692 14.9013 344.118 15.0293 344.588 15.072C345.1 15.1147 345.569 15.1573 345.996 15.2C346.977 15.2427 348.044 15.264 349.196 15.264C350.348 15.264 351.393 15.2 352.332 15.072C352.63 15.0293 352.929 14.9867 353.228 14.944C353.569 14.8587 353.868 14.7307 354.124 14.56C354.209 14.4747 354.294 14.3893 354.38 14.304C354.508 14.176 354.614 14.0693 354.7 13.984L355.083 13.6C355.297 13.2587 355.425 12.896 355.468 12.512C355.51 12.0853 355.553 11.7013 355.596 11.36C355.638 11.104 355.66 10.848 355.66 10.592C355.66 10.336 355.66 10.08 355.66 9.824C355.66 9.22666 355.638 8.608 355.596 7.968C355.596 7.328 355.489 6.70933 355.276 6.112C355.233 6.02666 355.19 5.92 355.148 5.792C355.148 5.664 355.105 5.55733 355.02 5.472C354.977 5.38666 354.892 5.30133 354.764 5.216C354.678 5.13066 354.593 5.06666 354.508 5.024C354.38 4.81067 354.209 4.64 353.996 4.512L353.356 4.32C352.972 4.192 352.566 4.10667 352.14 4.064C351.756 4.02133 351.329 4 350.86 4ZM348.62 18.72C347.937 18.72 347.212 18.72 346.444 18.72C345.718 18.6773 344.993 18.72 344.268 18.848C343.628 18.976 343.094 19.1467 342.668 19.36C342.625 19.4027 342.561 19.4453 342.476 19.488C342.39 19.5307 342.305 19.5733 342.22 19.616C341.964 19.8293 341.772 20.1067 341.644 20.448C341.516 20.7893 341.409 21.1307 341.324 21.472C341.153 22.1547 341.068 22.8587 341.068 23.584C341.068 24.3093 341.068 25.0347 341.068 25.76V47.264C341.11 47.7333 341.153 48.2027 341.196 48.672C341.281 49.0987 341.409 49.5253 341.58 49.952C341.665 50.2933 341.75 50.528 341.836 50.656L342.348 51.104C342.433 51.1467 342.518 51.2107 342.604 51.296C342.689 51.3813 342.774 51.4453 342.86 51.488C343.244 51.7013 343.67 51.8293 344.14 51.872C344.652 51.9147 345.121 51.9573 345.548 52C347.596 52.0853 349.644 52.0853 351.692 52C351.99 51.9573 352.31 51.936 352.652 51.936C353.036 51.8933 353.377 51.8293 353.676 51.744C353.804 51.6587 353.932 51.5733 354.06 51.488C354.188 51.4027 354.316 51.3173 354.444 51.232C354.529 51.1893 354.614 51.1467 354.7 51.104C354.785 51.0613 354.849 51.0187 354.892 50.976C355.148 50.72 355.34 50.4213 355.468 50.08C355.638 49.696 355.745 49.3333 355.788 48.992C355.958 48.1387 356.022 47.2853 355.98 46.432C355.98 45.536 355.98 44.6827 355.98 43.872V26.784C355.98 26.016 355.98 25.2267 355.98 24.416C356.022 23.6053 355.98 22.816 355.852 22.048C355.809 21.7067 355.745 21.344 355.66 20.96C355.574 20.576 355.425 20.256 355.212 20C354.87 19.5733 354.486 19.2747 354.06 19.104C353.932 19.0187 353.782 18.976 353.612 18.976C353.484 18.976 353.356 18.9547 353.228 18.912C352.545 18.7413 351.82 18.6773 351.052 18.72C350.284 18.72 349.473 18.72 348.62 18.72ZM401.871 35.232C401.914 36.1707 401.85 37.3867 401.679 38.88C401.551 40.3733 401.295 41.6533 400.911 42.72C400.484 43.6587 399.951 44.6827 399.311 45.792C398.671 46.9013 397.967 47.9467 397.199 48.928C396.516 49.824 395.77 50.6773 394.959 51.488C394.191 52.2987 393.316 53.0027 392.335 53.6C391.396 54.2827 390.18 54.816 388.687 55.2C387.194 55.584 385.956 55.8827 384.975 56.096C384.506 56.224 383.802 56.3093 382.863 56.352C381.967 56.3947 380.986 56.416 379.919 56.416C378.895 56.416 377.914 56.3733 376.975 56.288C376.079 56.2027 375.396 56.0747 374.927 55.904C373.988 55.6907 372.964 55.4133 371.855 55.072C370.746 54.7733 369.7 54.3467 368.719 53.792C367.78 53.1093 366.799 52.256 365.775 51.232C364.794 50.1653 363.919 49.1627 363.151 48.224C362.596 47.3707 362.042 46.496 361.487 45.6C360.932 44.704 360.463 43.7867 360.079 42.848C359.738 42.208 359.482 41.376 359.311 40.352C359.098 39.328 358.948 38.3253 358.863 37.344C358.778 36.32 358.735 35.488 358.735 34.848C358.735 34.208 358.756 33.4187 358.799 32.48C358.842 31.5413 358.948 30.6027 359.119 29.664C359.247 28.7253 359.439 27.936 359.695 27.296C359.908 26.784 360.122 26.272 360.335 25.76C360.591 25.2053 360.868 24.7147 361.167 24.288C361.38 23.9467 361.594 23.6267 361.807 23.328C362.063 23.0293 362.319 22.7307 362.575 22.432C362.959 22.048 363.812 21.6213 365.135 21.152C366.458 20.64 367.994 20.1493 369.743 19.68C371.492 19.2107 373.242 18.784 374.991 18.4C376.74 18.016 378.276 17.76 379.599 17.632C380.922 17.4613 381.775 17.4613 382.159 17.632C382.628 17.76 383.482 17.9307 384.719 18.144C385.999 18.3573 387.364 18.6133 388.815 18.912C390.308 19.168 391.674 19.488 392.911 19.872C394.191 20.256 395.066 20.6827 395.535 21.152C396.175 21.7493 396.879 22.56 397.647 23.584C398.415 24.5653 399.119 25.568 399.759 26.592C400.399 27.5733 400.868 28.384 401.167 29.024C401.466 29.9627 401.658 30.9867 401.743 32.096C401.828 33.2053 401.871 34.2507 401.871 35.232ZM393.615 48.736C393.999 48.352 394.404 47.6693 394.831 46.688C395.3 45.7067 395.748 44.5973 396.175 43.36C396.644 42.08 397.05 40.8213 397.391 39.584C397.775 38.3467 398.074 37.2373 398.287 36.256C398.5 35.2747 398.586 34.592 398.543 34.208C398.5 33.7387 398.394 33.0347 398.223 32.096C398.052 31.1147 397.818 30.0693 397.519 28.96C397.22 27.8507 396.858 26.8267 396.431 25.888C396.047 24.9067 395.62 24.1813 395.151 23.712C394.767 23.328 394.063 22.9013 393.039 22.432C392.058 21.92 390.906 21.4293 389.583 20.96C388.26 20.448 386.938 20 385.615 19.616C384.292 19.1893 383.119 18.848 382.095 18.592C381.114 18.2933 380.431 18.144 380.047 18.144C379.364 18.1013 378.66 18.1227 377.935 18.208C377.252 18.2507 376.548 18.3147 375.823 18.4C374.884 18.528 373.796 18.7413 372.559 19.04C371.322 19.296 370.17 19.7227 369.103 20.32C368.463 20.6613 367.844 21.0453 367.247 21.472C366.692 21.856 366.138 22.304 365.583 22.816C364.644 23.7547 363.834 24.9707 363.151 26.464C362.468 27.9573 361.978 29.1947 361.679 30.176C361.508 31.1147 361.402 32.1813 361.359 33.376C361.316 34.528 361.295 35.5947 361.295 36.576C361.338 37.0453 361.466 37.8133 361.679 38.88C361.935 39.904 362.255 41.0347 362.639 42.272C363.023 43.4667 363.45 44.5973 363.919 45.664C364.388 46.688 364.858 47.4347 365.327 47.904C366.308 48.8427 367.46 49.632 368.783 50.272C370.148 50.8693 371.3 51.3387 372.239 51.68C372.708 51.9787 373.54 52.192 374.735 52.32C375.972 52.4907 377.316 52.5973 378.767 52.64C380.218 52.6827 381.54 52.6613 382.735 52.576C383.972 52.4907 384.826 52.3627 385.295 52.192C386.276 52.0213 387.258 51.7867 388.239 51.488C389.263 51.1893 390.244 50.8053 391.183 50.336C392.122 49.824 392.932 49.2907 393.615 48.736ZM382.415 31.264C382.628 31.8187 382.735 32.3947 382.735 32.992C382.778 33.5893 382.799 34.1867 382.799 34.784C382.842 35.424 382.842 36.0853 382.799 36.768C382.799 37.408 382.735 38.048 382.607 38.688C382.522 39.0293 382.415 39.4133 382.287 39.84C382.159 40.224 381.967 40.5653 381.711 40.864C381.583 40.992 381.391 41.1413 381.135 41.312C380.922 41.44 380.751 41.5467 380.623 41.632C380.538 41.6747 380.41 41.696 380.239 41.696C380.111 41.6533 379.983 41.632 379.855 41.632C379.812 41.632 379.727 41.6533 379.599 41.696C379.471 41.696 379.364 41.696 379.279 41.696C379.236 41.6533 379.172 41.6107 379.087 41.568C379.002 41.4827 378.916 41.4187 378.831 41.376L378.191 40.992C378.063 40.864 377.935 40.6933 377.807 40.48C377.722 40.224 377.636 40.0107 377.551 39.84C377.38 39.4987 377.274 39.136 377.231 38.752C377.188 38.3253 377.146 37.9413 377.103 37.6C377.018 36.704 376.975 35.808 376.975 34.912C376.975 33.9733 377.06 33.0773 377.231 32.224C377.316 31.7547 377.423 31.3067 377.551 30.88C377.679 30.4533 377.956 30.048 378.383 29.664C378.554 29.5787 378.724 29.472 378.895 29.344C379.108 29.1733 379.3 29.0667 379.471 29.024L379.983 29.088C380.111 29.088 380.239 29.088 380.367 29.088C380.538 29.088 380.666 29.1093 380.751 29.152C380.836 29.1947 380.9 29.2587 380.943 29.344C381.028 29.3867 381.092 29.4293 381.135 29.472C381.263 29.5573 381.391 29.664 381.519 29.792C381.647 29.8773 381.754 29.9627 381.839 30.048C381.967 30.2187 382.074 30.432 382.159 30.688C382.287 30.9013 382.372 31.0933 382.415 31.264ZM380.047 32.096C380.132 32.096 380.175 32.1173 380.175 32.16C380.175 32.1173 380.111 32.0533 379.983 31.968C379.855 31.84 379.791 31.776 379.791 31.776C379.663 31.776 379.663 31.84 379.791 31.968C379.876 31.968 379.962 32.0107 380.047 32.096Z" fill="black"/>
</svg>
