<svg width="1243" height="327" viewBox="0 0 1243 327" fill="none" xmlns="http://www.w3.org/2000/svg">
<rect width="1243" height="327" fill="white"/>
<path d="M20.1353 318.949H59.8215" stroke="black" stroke-miterlimit="10"/>
<path d="M14.3613 326.88C18.3055 220.686 14.158 114.208 2 8.66515C15.3778 6.5909 28.7963 4.51664 42.1742 2.44239C45.1425 1.995 48.3548 1.54761 50.9978 2.93045C54.2101 4.59799 55.6333 8.33978 56.8125 11.7562C74.5412 63.2465 92.2699 114.737 109.999 166.186C121.547 115.103 133.054 63.9786 144.602 12.895C158.061 20.6633 165.218 35.7525 170.87 50.2316C202.627 131.371 211.613 219.71 211.451 306.829C211.451 308.944 211.329 311.343 209.865 312.848C208.238 314.516 205.595 314.516 203.277 314.394C183.678 313.418 164.16 311.099 144.927 307.439C144.724 280.311 144.521 253.183 144.358 226.055C144.805 239.029 141.878 252.085 135.941 263.676C118.416 249.604 104.875 230.61 97.2713 209.42C97.19 231.505 97.1087 253.549 97.068 275.634C97.068 282.426 96.9054 289.625 93.3678 295.4C85.5606 308.09 67.1407 306.992 52.5023 304.348" stroke="black" stroke-width="3" stroke-miterlimit="10"/>
<path d="M158.183 62.0264C225.642 62.1077 293.1 62.1891 360.518 62.2704L374.424 283.85C374.668 288.039 374.912 292.472 373.001 296.173C369.22 303.535 359.379 304.714 351.125 304.958C316.237 305.934 281.349 306.138 246.501 305.527C244.346 305.527 241.947 305.365 240.402 303.819C238.938 302.314 238.775 300.037 238.694 297.922C236.58 231.22 234.425 164.519 232.31 97.8581C248.006 96.4752 263.783 95.9058 279.519 96.1092C283.951 96.1499 288.546 96.3126 292.571 98.2241C303.144 103.227 305.095 117.136 305.583 128.85C307.332 168.911 309.08 209.014 310.829 249.075C310.951 252.248 311.073 255.542 309.975 258.511C305.99 269.004 291.148 268.354 280.21 265.832C280.048 243.829 279.926 221.785 279.763 199.781" stroke="black" stroke-width="3" stroke-miterlimit="10"/>
<path d="M165.258 63.5718C170.016 72.0721 178.677 78.3356 188.232 80.1658C195.877 81.63 203.765 80.4098 211.451 79.271C238.613 75.2445 265.938 72.1535 293.303 70.0386C300.785 69.4692 309.121 69.1845 314.895 73.943C320.872 78.8236 322.092 87.324 322.905 94.9703C328.354 148.616 330.875 202.547 330.428 256.437C330.428 259.772 330.306 263.351 328.313 266.035C326.972 267.865 324.979 269.004 322.987 270.102C310.707 276.732 297.37 281.328 283.626 283.727C277.038 284.866 269.028 284.988 265.043 279.579C262.807 276.569 262.481 272.543 262.319 268.801C260.204 223.818 264.108 178.551 273.948 134.625C274.639 131.534 276.551 127.589 279.682 128.24C281.308 128.565 282.365 130.111 283.219 131.575C292.612 147.965 293.913 167.732 293.059 186.603C292.327 203.157 290.091 219.792 284.48 235.369C282.162 241.876 279.194 248.872 281.308 255.461C284.276 264.693 297.004 268.15 305.38 263.31C313.756 258.47 317.538 247.814 316.359 238.216C315.18 228.617 309.934 219.954 303.875 212.43" stroke="black" stroke-width="3" stroke-miterlimit="10"/>
<path d="M387.355 27.6995C374.628 121.773 405.612 216.375 404.148 311.303" stroke="black" stroke-width="3" stroke-miterlimit="10"/>
<path d="M393.332 38.1929C424.561 38.3149 455.789 38.3962 487.018 38.5182C502.429 38.5589 520.848 40.3078 528.168 53.8921C535.609 67.6798 526.216 84.7212 514.749 95.3772C503.282 106.033 488.888 114.778 482.748 129.175C481.813 131.372 481.081 133.731 481.447 136.049C482.26 141.377 488.034 144.142 492.71 146.827C512.106 157.971 522.19 181.723 520.523 204.011C518.856 226.299 506.82 246.92 490.881 262.578C475.185 278.034 455.464 289.381 434.238 295.238C420.616 298.979 402.115 298.166 397.073 284.907" stroke="black" stroke-width="3" stroke-miterlimit="10"/>
<path d="M451.113 199.659C447.657 209.583 445.746 220.076 445.461 230.61C445.176 241.307 448.348 254.322 458.635 257.25C470.509 260.667 481.244 245.699 478.153 233.742C475.063 221.785 463.556 213.976 452.089 209.38" stroke="black" stroke-width="3" stroke-miterlimit="10"/>
<path d="M450.544 65.7275C444.363 77.1969 448.185 93.6283 459.815 99.485C471.444 105.342 488.197 96.5973 488.4 83.6231C488.4 81.3861 487.994 79.0272 486.611 77.2376C485.147 75.326 482.87 74.2686 480.634 73.4145C472.217 70.2828 463.068 69.144 454.163 70.1607" stroke="black" stroke-width="3" stroke-miterlimit="10"/>
<path d="M644.583 65.8088C608.76 57.2677 568.26 77.3189 553.256 110.954C551.548 114.777 550.125 118.967 551.101 123.034C552.484 129.013 558.42 132.673 563.869 135.52C579.483 143.736 595.504 151.138 611.85 157.727C630.148 165.048 649.463 171.718 663.654 185.424C677.845 199.13 685.083 222.476 674.104 238.867C667.069 249.401 654.464 254.607 642.306 258.064C606.646 268.232 568.098 268.232 532.437 258.064C529.672 277.586 529.875 302.802 547.97 310.693C553.053 312.889 558.786 313.174 564.316 313.377C587.982 314.19 611.688 314.231 635.394 313.418C651.415 312.889 667.964 311.832 682.155 304.429C710.334 289.747 721.313 252.288 712.204 221.866C703.137 191.443 678.089 167.935 650.154 152.805C633.442 143.736 612.542 133.08 612.298 114.045C612.054 95.5397 632.832 83.5823 651.292 82.4435C651.292 76.8308 648.853 71.2994 644.787 67.4356" stroke="black" stroke-width="3" stroke-miterlimit="10"/>
<path d="M665.077 118.763C658.774 112.866 661.336 101.559 668.005 96.109C674.673 90.6183 683.782 89.3982 692.361 88.5441C750.142 82.7687 808.858 83.0941 865.826 94.3195C871.112 95.3769 876.642 96.6377 880.627 100.298C884.571 103.959 886.157 110.751 882.457 114.696C879.57 117.787 874.812 117.99 870.583 117.95C853.993 117.868 837.362 117.746 820.772 117.665C816.096 117.665 810.688 117.95 807.801 121.651C805.483 124.661 805.727 128.89 806.093 132.673C810.281 177.127 814.429 221.54 818.617 265.994C818.861 268.76 819.024 271.892 817.194 273.966C815.364 276.04 812.274 276.244 809.509 276.325C801.254 276.569 793 276.813 784.746 277.057C781.777 277.138 778.402 277.057 776.328 274.942C774.458 272.99 774.336 270.021 774.295 267.337C774.051 222.842 778.28 177.29 765.472 134.666C764.211 130.517 762.463 126.003 758.559 124.132C755.713 122.79 752.379 123.196 749.288 123.644C733.186 125.921 717.084 128.24 700.982 130.517C691.589 131.859 681.789 133.161 672.721 130.355C663.654 127.548 655.521 119.251 656.091 109.775" stroke="black" stroke-width="3" stroke-miterlimit="10"/>
<path d="M837.85 152.114C838.216 183.919 842.242 215.684 849.724 246.594C853.749 263.147 859.117 280.067 870.827 292.472C882.538 304.836 902.178 311.221 917.101 303.006C926.982 297.556 933.081 286.737 935.114 275.634C937.147 264.53 935.561 253.061 933.203 242.039C926.575 211.006 913.726 181.316 895.59 155.286C882.375 162.119 875.422 179.038 880.017 193.192C882.375 200.472 887.295 206.655 890.223 213.772C893.151 220.89 893.517 230.041 887.865 235.206C885.669 237.199 882.213 238.338 879.651 236.833C878.594 236.223 877.78 235.206 877.089 234.189C870.421 224.509 870.095 211.901 870.502 200.147C870.909 188.393 871.803 176.11 867.005 165.373C862.207 154.636 849.48 146.379 838.664 150.934" stroke="black" stroke-width="3" stroke-miterlimit="10"/>
<path d="M933.61 62.1484C931.942 107.172 932.634 152.236 935.724 197.178" stroke="black" stroke-width="3" stroke-miterlimit="10"/>
<path d="M960.406 79.5964C973.946 74.7158 989.723 74.9192 1002.25 81.9961C1014.81 89.1136 1023.35 103.593 1021.6 117.909C1019.98 131.412 1010.09 142.475 999.401 150.894C970.043 174.036 930.601 183.879 893.842 177.249" stroke="black" stroke-width="3" stroke-miterlimit="10"/>
<path d="M969.392 122.139C963.008 127.996 967.359 140.116 975.614 142.638C983.868 145.2 992.976 140.075 997.693 132.836C1001.8 126.532 1003.22 118.153 1000.05 111.361C996.88 104.569 988.422 100.176 981.388 102.82" stroke="black" stroke-width="3" stroke-miterlimit="10"/>
<path d="M1047.26 112.459C1046.77 175.093 1046.98 237.687 1047.83 300.321C1059.3 299.101 1070.64 296.905 1081.74 293.773C1084.99 292.838 1088.41 291.74 1090.73 289.299C1093.74 286.127 1094.31 281.409 1094.59 277.017C1096.26 250.865 1093.13 224.672 1090.04 198.683C1086.66 170.335 1083.29 141.987 1079.91 113.639C1079.18 107.416 1078.37 100.949 1075.11 95.5803C1069.66 86.5512 1057.18 82.5247 1047.46 86.7139" stroke="black" stroke-width="3" stroke-miterlimit="10"/>
<path d="M1044.7 41.5684C1046.73 50.9229 1054.82 58.6505 1064.26 60.196C1073.69 61.7822 1083.86 57.105 1088.78 48.8893C1090.69 45.7169 1091.87 41.7718 1090.57 38.3147C1089.79 36.2404 1088.21 34.5322 1086.54 33.0681C1072.51 20.7039 1048.85 21.3953 1035.55 34.5729" stroke="black" stroke-width="3" stroke-miterlimit="10"/>
<path d="M1167.34 67.4763C1164.04 106.48 1162.94 145.647 1164.04 184.773C1164.49 199.985 1165.42 215.846 1173.07 229.024C1180.71 242.202 1197.14 251.516 1211.37 246.147C1224.3 241.266 1230.65 226.868 1234.31 213.569C1240.73 190.427 1243.17 165.739 1237.72 142.353C1232.27 118.967 1218.28 97.0039 1197.43 85.0871C1188.6 80.0439 1176.81 77.1562 1168.8 83.3789" stroke="black" stroke-width="3" stroke-miterlimit="10"/>
<path d="M1200.88 130.965L1197.99 169.318C1197.55 175.5 1197.14 182.089 1200.11 187.498C1203.08 192.908 1210.8 196.202 1215.68 192.379C1218.28 190.345 1219.38 186.929 1220.32 183.716C1222.8 175.297 1225.32 166.634 1224.59 157.889C1223.86 149.145 1219.18 140.157 1211.01 136.862" stroke="black" stroke-width="3" stroke-miterlimit="10"/>
</svg>
