<svg width="384" height="231" viewBox="0 0 384 231" fill="none" xmlns="http://www.w3.org/2000/svg">
<rect width="384" height="231" fill="white"/>
<path d="M73.1904 170.456C70.2295 122.265 76.2589 73.5363 90.7938 27.4995C87.8868 81.0206 81.1577 134.38 70.6602 186.932C93.1086 141.757 120.671 99.1122 152.594 60.1291C157.493 105.789 159.539 151.718 158.677 197.647C150.279 166.094 124.386 141.488 95.2081 126.896C65.9767 112.25 33.3538 106.22 1.26929 100.297C109.905 102.128 219.347 103.851 326.206 84.3051C262.468 113.219 207.773 161.625 171.274 221.392C190.708 229.038 215.471 216.385 220.693 196.139C225.915 175.894 210.357 152.903 189.631 150.21C220.209 143.049 243.895 113.327 244.164 81.936C252.293 124.257 260.422 166.525 268.551 208.847C272.911 176.917 280.663 139.98 309.626 125.873C306.611 160.495 286.962 193.286 257.892 212.347C292.237 179.017 336.004 155.541 382.731 145.364" stroke="#D50000" stroke-width="7" stroke-miterlimit="10"/>
</svg>
